<mxfile host="app.diagrams.net" modified="2023-06-12T20:03:04.810Z" agent="Mozilla/5.0 (Windows NT 10.0; Win64; x64) AppleWebKit/537.36 (KHTML, like Gecko) Chrome/112.0.0.0 YaBrowser/23.5.1.714 Yowser/2.5 Safari/537.36" etag="CvAX8qwJLHiYBHw2vWew" version="21.3.8" type="github">
  <diagram id="R2lEEEUBdFMjLlhIrx00" name="Page-1">
    <mxGraphModel dx="1002" dy="551" grid="0" gridSize="10" guides="1" tooltips="1" connect="1" arrows="1" fold="1" page="1" pageScale="1" pageWidth="850" pageHeight="1100" background="#ffffff" math="0" shadow="0" extFonts="Permanent Marker^https://fonts.googleapis.com/css?family=Permanent+Marker">
      <root>
        <mxCell id="0" />
        <mxCell id="1" parent="0" />
        <mxCell id="np7akrZoU4M9_Trvwf6j-79" style="edgeStyle=orthogonalEdgeStyle;rounded=0;orthogonalLoop=1;jettySize=auto;html=1;exitX=0.5;exitY=0;exitDx=0;exitDy=0;entryX=0.5;entryY=0;entryDx=0;entryDy=0;fillColor=#a20025;strokeColor=#6F0000;" edge="1" parent="1" source="np7akrZoU4M9_Trvwf6j-1" target="np7akrZoU4M9_Trvwf6j-72">
          <mxGeometry relative="1" as="geometry" />
        </mxCell>
        <mxCell id="np7akrZoU4M9_Trvwf6j-1" value="" style="rounded=0;whiteSpace=wrap;html=1;fillColor=#fad7ac;strokeColor=#b46504;" vertex="1" parent="1">
          <mxGeometry x="205" y="495" width="341" height="299" as="geometry" />
        </mxCell>
        <mxCell id="np7akrZoU4M9_Trvwf6j-2" value="Database" style="rounded=1;whiteSpace=wrap;html=1;fillColor=#dae8fc;gradientColor=#7ea6e0;strokeColor=#6c8ebf;" vertex="1" parent="1">
          <mxGeometry x="216" y="508" width="173" height="41" as="geometry" />
        </mxCell>
        <mxCell id="np7akrZoU4M9_Trvwf6j-3" value="" style="rounded=0;whiteSpace=wrap;html=1;fillColor=#e6d0de;gradientColor=#d5739d;strokeColor=#996185;" vertex="1" parent="1">
          <mxGeometry x="216" y="547" width="170" height="66" as="geometry" />
        </mxCell>
        <mxCell id="np7akrZoU4M9_Trvwf6j-4" value="" style="endArrow=none;html=1;rounded=0;" edge="1" parent="1">
          <mxGeometry width="50" height="50" relative="1" as="geometry">
            <mxPoint x="227.70588235294122" y="741" as="sourcePoint" />
            <mxPoint x="231" y="739" as="targetPoint" />
          </mxGeometry>
        </mxCell>
        <mxCell id="np7akrZoU4M9_Trvwf6j-19" value="Products" style="rounded=1;whiteSpace=wrap;html=1;fillColor=#dae8fc;gradientColor=#7ea6e0;strokeColor=#6c8ebf;" vertex="1" parent="1">
          <mxGeometry x="223" y="585" width="66" height="25" as="geometry" />
        </mxCell>
        <mxCell id="np7akrZoU4M9_Trvwf6j-21" value="Users" style="rounded=1;whiteSpace=wrap;html=1;fillColor=#dae8fc;gradientColor=#7ea6e0;strokeColor=#6c8ebf;" vertex="1" parent="1">
          <mxGeometry x="223" y="552" width="66" height="25" as="geometry" />
        </mxCell>
        <mxCell id="np7akrZoU4M9_Trvwf6j-24" value="Tokens" style="rounded=1;whiteSpace=wrap;html=1;fillColor=#dae8fc;gradientColor=#7ea6e0;strokeColor=#6c8ebf;" vertex="1" parent="1">
          <mxGeometry x="313" y="554" width="66" height="25" as="geometry" />
        </mxCell>
        <mxCell id="np7akrZoU4M9_Trvwf6j-25" style="edgeStyle=orthogonalEdgeStyle;rounded=0;orthogonalLoop=1;jettySize=auto;html=1;exitX=0.5;exitY=1;exitDx=0;exitDy=0;" edge="1" parent="1" source="np7akrZoU4M9_Trvwf6j-21" target="np7akrZoU4M9_Trvwf6j-21">
          <mxGeometry relative="1" as="geometry" />
        </mxCell>
        <mxCell id="np7akrZoU4M9_Trvwf6j-27" value="Checks" style="rounded=1;whiteSpace=wrap;html=1;fillColor=#dae8fc;gradientColor=#7ea6e0;strokeColor=#6c8ebf;" vertex="1" parent="1">
          <mxGeometry x="313" y="585" width="66" height="25" as="geometry" />
        </mxCell>
        <mxCell id="np7akrZoU4M9_Trvwf6j-29" value="Login" style="rounded=1;whiteSpace=wrap;html=1;fillColor=#dae8fc;gradientColor=#7ea6e0;strokeColor=#6c8ebf;" vertex="1" parent="1">
          <mxGeometry x="426" y="508" width="99" height="41" as="geometry" />
        </mxCell>
        <mxCell id="np7akrZoU4M9_Trvwf6j-30" value="" style="rounded=0;whiteSpace=wrap;html=1;fillColor=#e6d0de;gradientColor=#d5739d;strokeColor=#996185;" vertex="1" parent="1">
          <mxGeometry x="426" y="549" width="98" height="94" as="geometry" />
        </mxCell>
        <mxCell id="np7akrZoU4M9_Trvwf6j-34" style="edgeStyle=orthogonalEdgeStyle;rounded=0;orthogonalLoop=1;jettySize=auto;html=1;exitX=0.5;exitY=1;exitDx=0;exitDy=0;" edge="1" parent="1">
          <mxGeometry relative="1" as="geometry">
            <mxPoint x="466" y="579" as="sourcePoint" />
            <mxPoint x="466" y="579" as="targetPoint" />
          </mxGeometry>
        </mxCell>
        <mxCell id="np7akrZoU4M9_Trvwf6j-38" value="LoginRemote" style="text;html=1;strokeColor=none;fillColor=none;align=center;verticalAlign=middle;whiteSpace=wrap;rounded=0;" vertex="1" parent="1">
          <mxGeometry x="433" y="551" width="74" height="20" as="geometry" />
        </mxCell>
        <mxCell id="np7akrZoU4M9_Trvwf6j-40" value="" style="endArrow=none;html=1;rounded=0;" edge="1" parent="1">
          <mxGeometry width="50" height="50" relative="1" as="geometry">
            <mxPoint x="778" y="797" as="sourcePoint" />
            <mxPoint x="790" y="779" as="targetPoint" />
          </mxGeometry>
        </mxCell>
        <mxCell id="np7akrZoU4M9_Trvwf6j-41" value="LoginRouting" style="text;html=1;strokeColor=none;fillColor=none;align=center;verticalAlign=middle;whiteSpace=wrap;rounded=0;" vertex="1" parent="1">
          <mxGeometry x="433" y="571" width="74" height="20" as="geometry" />
        </mxCell>
        <mxCell id="np7akrZoU4M9_Trvwf6j-44" value="LoginController" style="text;html=1;strokeColor=none;fillColor=none;align=center;verticalAlign=middle;whiteSpace=wrap;rounded=0;" vertex="1" parent="1">
          <mxGeometry x="436" y="591" width="74" height="20" as="geometry" />
        </mxCell>
        <mxCell id="np7akrZoU4M9_Trvwf6j-46" value="CheckProduct" style="rounded=1;whiteSpace=wrap;html=1;fillColor=#dae8fc;gradientColor=#7ea6e0;strokeColor=#6c8ebf;" vertex="1" parent="1">
          <mxGeometry x="425" y="655" width="96" height="41" as="geometry" />
        </mxCell>
        <mxCell id="np7akrZoU4M9_Trvwf6j-47" value="" style="rounded=0;whiteSpace=wrap;html=1;fillColor=#e6d0de;gradientColor=#d5739d;strokeColor=#996185;" vertex="1" parent="1">
          <mxGeometry x="426" y="693" width="96" height="94" as="geometry" />
        </mxCell>
        <mxCell id="np7akrZoU4M9_Trvwf6j-48" style="edgeStyle=orthogonalEdgeStyle;rounded=0;orthogonalLoop=1;jettySize=auto;html=1;exitX=0.5;exitY=1;exitDx=0;exitDy=0;" edge="1" parent="1">
          <mxGeometry relative="1" as="geometry">
            <mxPoint x="466" y="723" as="sourcePoint" />
            <mxPoint x="466" y="723" as="targetPoint" />
          </mxGeometry>
        </mxCell>
        <mxCell id="np7akrZoU4M9_Trvwf6j-49" value="ProductRemote" style="text;html=1;strokeColor=none;fillColor=none;align=center;verticalAlign=middle;whiteSpace=wrap;rounded=0;" vertex="1" parent="1">
          <mxGeometry x="433" y="695" width="74" height="20" as="geometry" />
        </mxCell>
        <mxCell id="np7akrZoU4M9_Trvwf6j-50" value="ProductRouting" style="text;html=1;strokeColor=none;fillColor=none;align=center;verticalAlign=middle;whiteSpace=wrap;rounded=0;" vertex="1" parent="1">
          <mxGeometry x="433" y="715" width="74" height="20" as="geometry" />
        </mxCell>
        <mxCell id="np7akrZoU4M9_Trvwf6j-51" value="ProductController" style="text;html=1;strokeColor=none;fillColor=none;align=center;verticalAlign=middle;whiteSpace=wrap;rounded=0;" vertex="1" parent="1">
          <mxGeometry x="436" y="735" width="74" height="20" as="geometry" />
        </mxCell>
        <mxCell id="np7akrZoU4M9_Trvwf6j-52" value="AnalysisCheck" style="text;html=1;strokeColor=none;fillColor=none;align=center;verticalAlign=middle;whiteSpace=wrap;rounded=0;" vertex="1" parent="1">
          <mxGeometry x="430" y="755" width="74" height="20" as="geometry" />
        </mxCell>
        <mxCell id="np7akrZoU4M9_Trvwf6j-53" value="Plugins" style="rounded=1;whiteSpace=wrap;html=1;fillColor=#dae8fc;gradientColor=#7ea6e0;strokeColor=#6c8ebf;" vertex="1" parent="1">
          <mxGeometry x="216" y="654.5" width="94" height="40" as="geometry" />
        </mxCell>
        <mxCell id="np7akrZoU4M9_Trvwf6j-54" value="" style="rounded=0;whiteSpace=wrap;html=1;fillColor=#e6d0de;gradientColor=#d5739d;strokeColor=#996185;" vertex="1" parent="1">
          <mxGeometry x="217" y="695" width="91" height="92" as="geometry" />
        </mxCell>
        <mxCell id="np7akrZoU4M9_Trvwf6j-55" style="edgeStyle=orthogonalEdgeStyle;rounded=0;orthogonalLoop=1;jettySize=auto;html=1;exitX=0.5;exitY=1;exitDx=0;exitDy=0;" edge="1" parent="1">
          <mxGeometry relative="1" as="geometry">
            <mxPoint x="256" y="710" as="sourcePoint" />
            <mxPoint x="256" y="710" as="targetPoint" />
          </mxGeometry>
        </mxCell>
        <mxCell id="np7akrZoU4M9_Trvwf6j-56" value="Routing" style="text;html=1;strokeColor=none;fillColor=none;align=center;verticalAlign=middle;whiteSpace=wrap;rounded=0;" vertex="1" parent="1">
          <mxGeometry x="225.5" y="713" width="74" height="18" as="geometry" />
        </mxCell>
        <mxCell id="np7akrZoU4M9_Trvwf6j-59" value="Serialization" style="text;html=1;strokeColor=none;fillColor=none;align=center;verticalAlign=middle;whiteSpace=wrap;rounded=0;" vertex="1" parent="1">
          <mxGeometry x="226" y="739.5" width="74" height="11" as="geometry" />
        </mxCell>
        <mxCell id="np7akrZoU4M9_Trvwf6j-63" value="Main" style="rounded=1;whiteSpace=wrap;html=1;fillColor=#dae8fc;gradientColor=#7ea6e0;strokeColor=#6c8ebf;" vertex="1" parent="1">
          <mxGeometry x="323.5" y="654" width="88.5" height="27" as="geometry" />
        </mxCell>
        <mxCell id="np7akrZoU4M9_Trvwf6j-64" value="Application" style="rounded=0;whiteSpace=wrap;html=1;fillColor=#e6d0de;gradientColor=#d5739d;strokeColor=#996185;" vertex="1" parent="1">
          <mxGeometry x="323.5" y="681" width="87.5" height="30" as="geometry" />
        </mxCell>
        <mxCell id="np7akrZoU4M9_Trvwf6j-65" style="edgeStyle=orthogonalEdgeStyle;rounded=0;orthogonalLoop=1;jettySize=auto;html=1;exitX=0.5;exitY=1;exitDx=0;exitDy=0;" edge="1" parent="1">
          <mxGeometry relative="1" as="geometry">
            <mxPoint x="266" y="720" as="sourcePoint" />
            <mxPoint x="266" y="720" as="targetPoint" />
          </mxGeometry>
        </mxCell>
        <mxCell id="np7akrZoU4M9_Trvwf6j-69" value="CheckOnline" style="rounded=1;whiteSpace=wrap;html=1;fillColor=#dae8fc;gradientColor=#7ea6e0;strokeColor=#6c8ebf;" vertex="1" parent="1">
          <mxGeometry x="323" y="723.5" width="88.5" height="27" as="geometry" />
        </mxCell>
        <mxCell id="np7akrZoU4M9_Trvwf6j-70" value="Requests" style="rounded=0;whiteSpace=wrap;html=1;fillColor=#e6d0de;gradientColor=#d5739d;strokeColor=#996185;" vertex="1" parent="1">
          <mxGeometry x="323" y="750" width="87.5" height="30" as="geometry" />
        </mxCell>
        <mxCell id="np7akrZoU4M9_Trvwf6j-78" style="edgeStyle=orthogonalEdgeStyle;rounded=0;orthogonalLoop=1;jettySize=auto;html=1;entryX=0.003;entryY=0.842;entryDx=0;entryDy=0;entryPerimeter=0;exitX=0.5;exitY=1;exitDx=0;exitDy=0;fillColor=#008a00;strokeColor=#005700;" edge="1" parent="1" source="np7akrZoU4M9_Trvwf6j-72" target="np7akrZoU4M9_Trvwf6j-1">
          <mxGeometry relative="1" as="geometry" />
        </mxCell>
        <mxCell id="np7akrZoU4M9_Trvwf6j-72" value="" style="shape=image;verticalLabelPosition=bottom;labelBackgroundColor=default;verticalAlign=top;aspect=fixed;imageAspect=0;image=data:image/jpeg,/9j/4AAQSkZJRgABAQEASABIAAD/4QiQRXhpZgAATU0AKgAAAAgABgEOAAIAAAB0AAAAVgESAAMAAAABAAEAAIdpAAQAAAABAAAAypybAAEAAADqAAADfpyeAAEAAAM4AAAEaJyfAAEAAADoAAAHoAAAAABTUUwgRGF0YWJhc2UsIFNlcnZlciBJc29sYXRlZCBGbGF0IFdlYiBNb2JpbGUgSWNvbiB3aXRoIFNRTCB3b3JkLiBWZWN0b3IgSWxsdXN0cmF0aW9uIGlzb2xhdGVkIG9uIG1vZGVybiBiYWNrZ3JvdW5kAAABkoYABwAAAqAAAADcAAAAAEFTQ0lJAAAAU1NVQ3YzSDRzSUFBQUFBQUFFQUoxVHkyNmtNQkM4cjVSL0dQazhJMkhBUFBJcjBSNk0zUXhXQUNQYlpCVkYvSHZNdzlCTU5ydXJ2ZEZWWmR4ZFhmNTQrbkc1a0lwYkpjano1V091ZkszYWRyVE9jS2QwNzJGNjNYQ1F5bW1qZU92QmFNYW1oU0hXY1RkYXNPZ1hORTVNamM5eXFTdXdUb3RYakZicXZtQkRvNTMyUkJJSXdmc1RzWitRTUdpcjNJSmJmRUlhNEoxMXFnTXNyNzJzVlJ3TEI5MUxoZ0hiak02QkNjMGQrQXpVQm15RC8vaW1KT2lxOWRSeVBiSkJjQWQzNzgvSmlPRHR5MXBmQXJGTjZUeEZ5QlZoZHF3V0xFRFQ5YjlQcmg4Lzl4WGNvUmZ2YzI4VDZ0cEFDM3hkM3NzcUphKy92QjNkTXNVbVdvWkdOUitsMG1qS055MTQrK2pIWUpSUS9SMGQwNjRCZzJyaFk2WTdCUFRhTFoxc2d4SHBMWjFMbXRBaWpRcEc0N1RJOG9ReFNrTDAvQ0tVeEwydWFXeVVwOHc3Nm5FY1dzMGx5QVA2dW52S2tqS0xXRm1VdTdFb1FpdWJNY1lPOXB6clZaREh5U0Y0alBpbUtjcmkwRHlHZXRVVUVjT2FVNzQzUVJZZGdpOVBKbWpTUXhPeXYzUDV3WjJESFJRNXVtRi8xSUdqQjNkK0xFRVFyL3kwUDZteDZwUTMvQitXa05PY2ZiK0VuR0gvZnU5eFVhYkpkNk9YYVpUK3pYK3Z5ZjVvRC9XR0pOdUVLUGRxbm82a3JJYTBTc3BiRkdmMGxncUFHNmUwdm1WUlZBaktJS2NaK0tjNmZRSmcxMEJxZ3dVQUFBPT0AAAAAUwBRAEwAIABEAGEAdABhAGIAYQBzAGUALAAgAFMAZQByAHYAZQByACAASQBzAG8AbABhAHQAZQBkACAARgBsAGEAdAAgAFcAZQBiACAATQBvAGIAaQBsAGUAIABJAGMAbwBuACAAdwBpAHQAaAAgAFMAUQBMACAAdwBvAHIAZAAuACAAVgBlAGMAdABvAHIAIABJAGwAbAB1AHMAdAByAGEAdABpAG8AbgAgAGkAcwBvAGwAYQB0AGUAZAAgAG8AbgAgAG0AbwBkAGUAcgBuACAAYgBhAGMAawBnAHIAbwB1AG4AZAAuAAAAZABhAHQAYQBiAGEAcwBlADsAIABzAHEAbAA7ACAAaQBjAG8AbgA7ACAAdgBlAGMAdABvAHIAOwAgAGQAYQB0AGEAOwAgAGIAYQBzAGUAOwAgAGkAbABsAHUAcwB0AHIAYQB0AGkAbwBuADsAIABzAHQAbwByAGEAZwBlADsAIABuAGUAdAB3AG8AcgBrADsAIABzAGkAZwBuADsAIABzAHkAbQBiAG8AbAA7ACAAdwBlAGIAOwAgAGQAcgBpAHYAZQA7ACAAYgB1AHQAdABvAG4AOwAgAGYAaQBsAGUAOwAgAGgAYQByAGQAOwAgAG8AYgBqAGUAYwB0ADsAIABwAHIAbwB0AGUAYwB0AGkAbwBuADsAIAB3AGUAYgBzAGkAdABlADsAIABkAGkAcwBrADsAIABmAGwAYQB0ADsAIABjAG8AbgBjAGUAcAB0ADsAIABkAHIAYQB3AGkAbgBnADsAIABlAGwAZQBtAGUAbgB0ADsAIABpAHMAbwBsAGEAdABlAGQAOwAgAHMAZQB0ADsAIABpAG4AZgBvAHIAbQBhAHQAaQBvAG4AOwAgAHQAZQBjAGgAbgBvAGwAbwBnAHkAOwAgAHQAbwBvAGwAOwAgAG0AbwBiAGkAbABlADsAIABnAHIAYQBwAGgAaQBjADsAIABiAGwAYQBjAGsAOwAgAGIAbABhAG4AawA7ACAAYwBsAGkAcABhAHIAdAA7ACAAYwBvAG4AdABlAG0AcABvAHIAYQByAHkAOwAgAGMAbwBvAGwAOwAgAGQAZQB2AGkAYwBlADsAIABoAGEAcgBkAHcAYQByAGUAOwAgAGkAbABsAHUAcwB0AHIAYQB0AG8AcgA7ACAAbQBvAGQAZQByAG4AOwAgAHIAbwB1AG4AZABlAGQAOwAgAHMAaQBsAGgAbwB1AGUAdAB0AGUAOwAgAHMAdAB5AGwAZQA7ACAAdAByAGUAbgBkAHkAOwAgAHUAaQA7ACAAdQBuAGkAdAA7ACAAYQBjAGMAZQBzAHMAOwAgAGIAYQBjAGsAdQBwADsAIABjAG8AbQBwAHUAdABlAHIAOwAgAGMAbwBuAG4AZQBjAHQAAABTAFEATAAgAEQAYQB0AGEAYgBhAHMAZQAsACAAUwBlAHIAdgBlAHIAIABJAHMAbwBsAGEAdABlAGQAIABGAGwAYQB0ACAAVwBlAGIAIABNAG8AYgBpAGwAZQAgAEkAYwBvAG4AIAB3AGkAdABoACAAUwBRAEwAIAB3AG8AcgBkAC4AIABWAGUAYwB0AG8AcgAgAEkAbABsAHUAcwB0AHIAYQB0AGkAbwBuACAAaQBzAG8AbABhAHQAZQBkACAAbwBuACAAbQBvAGQAZQByAG4AIABiAGEAYwBrAGcAcgBvAHUAbgBkAAAA/+EWimh0dHA6Ly9ucy5hZG9iZS5jb20veGFwLzEuMC8APD94cGFja2V0IGJlZ2luPSLvu78iIGlkPSJXNU0wTXBDZWhpSHpyZVN6TlRjemtjOWQiPz4NCjx4OnhtcG1ldGEgeG1sbnM6eD0iYWRvYmU6bnM6bWV0YS8iIHg6eG1wdGs9IlhNUCBDb3JlIDQuNC4wLUV4aXYyIj4NCgk8cmRmOlJERiB4bWxuczpyZGY9Imh0dHA6Ly93d3cudzMub3JnLzE5OTkvMDIvMjItcmRmLXN5bnRheC1ucyMiPg0KCQk8cmRmOkRlc2NyaXB0aW9uIHJkZjphYm91dD0iIiB4bWxuczpNaWNyb3NvZnRQaG90bz0iaHR0cDovL25zLm1pY3Jvc29mdC5jb20vcGhvdG8vMS4wLyIgeG1sbnM6ZGM9Imh0dHA6Ly9wdXJsLm9yZy9kYy9lbGVtZW50cy8xLjEvIiB4bWxuczpwaG90b3Nob3A9Imh0dHA6Ly9ucy5hZG9iZS5jb20vcGhvdG9zaG9wLzEuMC8iPg0KCQkJPE1pY3Jvc29mdFBob3RvOkxhc3RLZXl3b3JkWE1QPg0KCQkJCTxyZGY6QmFnPg0KCQkJCQk8cmRmOmxpPmRhdGFiYXNlPC9yZGY6bGk+DQoJCQkJCTxyZGY6bGk+c3FsPC9yZGY6bGk+DQoJCQkJCTxyZGY6bGk+aWNvbjwvcmRmOmxpPg0KCQkJCQk8cmRmOmxpPnZlY3RvcjwvcmRmOmxpPg0KCQkJCQk8cmRmOmxpPmRhdGE8L3JkZjpsaT4NCgkJCQkJPHJkZjpsaT5iYXNlPC9yZGY6bGk+DQoJCQkJCTxyZGY6bGk+aWxsdXN0cmF0aW9uPC9yZGY6bGk+DQoJCQkJCTxyZGY6bGk+c3RvcmFnZTwvcmRmOmxpPg0KCQkJCQk8cmRmOmxpPm5ldHdvcms8L3JkZjpsaT4NCgkJCQkJPHJkZjpsaT5zaWduPC9yZGY6bGk+DQoJCQkJCTxyZGY6bGk+c3ltYm9sPC9yZGY6bGk+DQoJCQkJCTxyZGY6bGk+d2ViPC9yZGY6bGk+DQoJCQkJCTxyZGY6bGk+ZHJpdmU8L3JkZjpsaT4NCgkJCQkJPHJkZjpsaT5idXR0b248L3JkZjpsaT4NCgkJCQkJPHJkZjpsaT5maWxlPC9yZGY6bGk+DQoJCQkJCTxyZGY6bGk+aGFyZDwvcmRmOmxpPg0KCQkJCQk8cmRmOmxpPm9iamVjdDwvcmRmOmxpPg0KCQkJCQk8cmRmOmxpPnByb3RlY3Rpb248L3JkZjpsaT4NCgkJCQkJPHJkZjpsaT53ZWJzaXRlPC9yZGY6bGk+DQoJCQkJCTxyZGY6bGk+ZGlzazwvcmRmOmxpPg0KCQkJCQk8cmRmOmxpPmZsYXQ8L3JkZjpsaT4NCgkJCQkJPHJkZjpsaT5jb25jZXB0PC9yZGY6bGk+DQoJCQkJCTxyZGY6bGk+ZHJhd2luZzwvcmRmOmxpPg0KCQkJCQk8cmRmOmxpPmVsZW1lbnQ8L3JkZjpsaT4NCgkJCQkJPHJkZjpsaT5pc29sYXRlZDwvcmRmOmxpPg0KCQkJCQk8cmRmOmxpPnNldDwvcmRmOmxpPg0KCQkJCQk8cmRmOmxpPmluZm9ybWF0aW9uPC9yZGY6bGk+DQoJCQkJCTxyZGY6bGk+dGVjaG5vbG9neTwvcmRmOmxpPg0KCQkJCQk8cmRmOmxpPnRvb2w8L3JkZjpsaT4NCgkJCQkJPHJkZjpsaT5tb2JpbGU8L3JkZjpsaT4NCgkJCQkJPHJkZjpsaT5ncmFwaGljPC9yZGY6bGk+DQoJCQkJCTxyZGY6bGk+YmxhY2s8L3JkZjpsaT4NCgkJCQkJPHJkZjpsaT5ibGFuazwvcmRmOmxpPg0KCQkJCQk8cmRmOmxpPmNsaXBhcnQ8L3JkZjpsaT4NCgkJCQkJPHJkZjpsaT5jb250ZW1wb3Jhcnk8L3JkZjpsaT4NCgkJCQkJPHJkZjpsaT5jb29sPC9yZGY6bGk+DQoJCQkJCTxyZGY6bGk+ZGV2aWNlPC9yZGY6bGk+DQoJCQkJCTxyZGY6bGk+aGFyZHdhcmU8L3JkZjpsaT4NCgkJCQkJPHJkZjpsaT5pbGx1c3RyYXRvcjwvcmRmOmxpPg0KCQkJCQk8cmRmOmxpPm1vZGVybjwvcmRmOmxpPg0KCQkJCQk8cmRmOmxpPnJvdW5kZWQ8L3JkZjpsaT4NCgkJCQkJPHJkZjpsaT5zaWxob3VldHRlPC9yZGY6bGk+DQoJCQkJCTxyZGY6bGk+c3R5bGU8L3JkZjpsaT4NCgkJCQkJPHJkZjpsaT50cmVuZHk8L3JkZjpsaT4NCgkJCQkJPHJkZjpsaT51aTwvcmRmOmxpPg0KCQkJCQk8cmRmOmxpPnVuaXQ8L3JkZjpsaT4NCgkJCQkJPHJkZjpsaT5hY2Nlc3M8L3JkZjpsaT4NCgkJCQkJPHJkZjpsaT5iYWNrdXA8L3JkZjpsaT4NCgkJCQkJPHJkZjpsaT5jb21wdXRlcjwvcmRmOmxpPg0KCQkJCQk8cmRmOmxpPmNvbm5lY3Q8L3JkZjpsaT4NCgkJCQk8L3JkZjpCYWc+DQoJCQk8L01pY3Jvc29mdFBob3RvOkxhc3RLZXl3b3JkWE1QPg0KCQkJPGRjOmRlc2NyaXB0aW9uPg0KCQkJCTxyZGY6QWx0Pg0KCQkJCQk8cmRmOmxpIHhtbDpsYW5nPSJ4LXJlcGFpciI+U1FMIERhdGFiYXNlLCBTZXJ2ZXIgSXNvbGF0ZWQgRmxhdCBXZWIgTW9iaWxlIEljb24gd2l0aCBTUUwgd29yZC4gVmVjdG9yIElsbHVzdHJhdGlvbiBpc29sYXRlZCBvbiBtb2Rlcm4gYmFja2dyb3VuZDwvcmRmOmxpPg0KCQkJCTwvcmRmOkFsdD4NCgkJCTwvZGM6ZGVzY3JpcHRpb24+DQoJCQk8ZGM6c3ViamVjdD4NCgkJCQk8cmRmOkJhZz4NCgkJCQkJPHJkZjpsaT5kYXRhYmFzZTwvcmRmOmxpPg0KCQkJCQk8cmRmOmxpPnNxbDwvcmRmOmxpPg0KCQkJCQk8cmRmOmxpPmljb248L3JkZjpsaT4NCgkJCQkJPHJkZjpsaT52ZWN0b3I8L3JkZjpsaT4NCgkJCQkJPHJkZjpsaT5kYXRhPC9yZGY6bGk+DQoJCQkJCTxyZGY6bGk+YmFzZTwvcmRmOmxpPg0KCQkJCQk8cmRmOmxpPmlsbHVzdHJhdGlvbjwvcmRmOmxpPg0KCQkJCQk8cmRmOmxpPnN0b3JhZ2U8L3JkZjpsaT4NCgkJCQkJPHJkZjpsaT5uZXR3b3JrPC9yZGY6bGk+DQoJCQkJCTxyZGY6bGk+c2lnbjwvcmRmOmxpPg0KCQkJCQk8cmRmOmxpPnN5bWJvbDwvcmRmOmxpPg0KCQkJCQk8cmRmOmxpPndlYjwvcmRmOmxpPg0KCQkJCQk8cmRmOmxpPmRyaXZlPC9yZGY6bGk+DQoJCQkJCTxyZGY6bGk+YnV0dG9uPC9yZGY6bGk+DQoJCQkJCTxyZGY6bGk+ZmlsZTwvcmRmOmxpPg0KCQkJCQk8cmRmOmxpPmhhcmQ8L3JkZjpsaT4NCgkJCQkJPHJkZjpsaT5vYmplY3Q8L3JkZjpsaT4NCgkJCQkJPHJkZjpsaT5wcm90ZWN0aW9uPC9yZGY6bGk+DQoJCQkJCTxyZGY6bGk+d2Vic2l0ZTwvcmRmOmxpPg0KCQkJCQk8cmRmOmxpPmRpc2s8L3JkZjpsaT4NCgkJCQkJPHJkZjpsaT5mbGF0PC9yZGY6bGk+DQoJCQkJCTxyZGY6bGk+Y29uY2VwdDwvcmRmOmxpPg0KCQkJCQk8cmRmOmxpPmRyYXdpbmc8L3JkZjpsaT4NCgkJCQkJPHJkZjpsaT5lbGVtZW50PC9yZGY6bGk+DQoJCQkJCTxyZGY6bGk+aXNvbGF0ZWQ8L3JkZjpsaT4NCgkJCQkJPHJkZjpsaT5zZXQ8L3JkZjpsaT4NCgkJCQkJPHJkZjpsaT5pbmZvcm1hdGlvbjwvcmRmOmxpPg0KCQkJCQk8cmRmOmxpPnRlY2hub2xvZ3k8L3JkZjpsaT4NCgkJCQkJPHJkZjpsaT50b29sPC9yZGY6bGk+DQoJCQkJCTxyZGY6bGk+bW9iaWxlPC9yZGY6bGk+DQoJCQkJCTxyZGY6bGk+Z3JhcGhpYzwvcmRmOmxpPg0KCQkJCQk8cmRmOmxpPmJsYWNrPC9yZGY6bGk+DQoJCQkJCTxyZGY6bGk+Ymxhbms8L3JkZjpsaT4NCgkJCQkJPHJkZjpsaT5jbGlwYXJ0PC9yZGY6bGk+DQoJCQkJCTxyZGY6bGk+Y29udGVtcG9yYXJ5PC9yZGY6bGk+DQoJCQkJCTxyZGY6bGk+Y29vbDwvcmRmOmxpPg0KCQkJCQk8cmRmOmxpPmRldmljZTwvcmRmOmxpPg0KCQkJCQk8cmRmOmxpPmhhcmR3YXJlPC9yZGY6bGk+DQoJCQkJCTxyZGY6bGk+aWxsdXN0cmF0b3I8L3JkZjpsaT4NCgkJCQkJPHJkZjpsaT5tb2Rlcm48L3JkZjpsaT4NCgkJCQkJPHJkZjpsaT5yb3VuZGVkPC9yZGY6bGk+DQoJCQkJCTxyZGY6bGk+c2lsaG91ZXR0ZTwvcmRmOmxpPg0KCQkJCQk8cmRmOmxpPnN0eWxlPC9yZGY6bGk+DQoJCQkJCTxyZGY6bGk+dHJlbmR5PC9yZGY6bGk+DQoJCQkJCTxyZGY6bGk+dWk8L3JkZjpsaT4NCgkJCQkJPHJkZjpsaT51bml0PC9yZGY6bGk+DQoJCQkJCTxyZGY6bGk+YWNjZXNzPC9yZGY6bGk+DQoJCQkJCTxyZGY6bGk+YmFja3VwPC9yZGY6bGk+DQoJCQkJCTxyZGY6bGk+Y29tcHV0ZXI8L3JkZjpsaT4NCgkJCQkJPHJkZjpsaT5jb25uZWN0PC9yZGY6bGk+DQoJCQkJPC9yZGY6QmFnPg0KCQkJPC9kYzpzdWJqZWN0Pg0KCQkJPGRjOnRpdGxlPg0KCQkJCTxyZGY6QWx0Pg0KCQkJCQk8cmRmOmxpIHhtbDpsYW5nPSJ4LXJlcGFpciI+U1FMIERhdGFiYXNlLCBTZXJ2ZXIgSXNvbGF0ZWQgRmxhdCBXZWIgTW9iaWxlIEljb24gd2l0aCBTUUwgd29yZC4gVmVjdG9yIElsbHVzdHJhdGlvbiBpc29sYXRlZCBvbiBtb2Rlcm4gYmFja2dyb3VuZC48L3JkZjpsaT4NCgkJCQk8L3JkZjpBbHQ+DQoJCQk8L2RjOnRpdGxlPg0KCQkJPGRjOmNyZWF0b3I+DQoJCQkJPHJkZjpTZXE+DQoJCQkJCTxyZGY6bGk+VmVjdG9yU3RvY2suY29tLzIyNjYwMzM3PC9yZGY6bGk+DQoJCQkJPC9yZGY6U2VxPg0KCQkJPC9kYzpjcmVhdG9yPg0KCQkJPHBob3Rvc2hvcDpIZWFkbGluZT4NCgkJCQk8cmRmOkFsdD4NCgkJCQkJPHJkZjpsaT5TUUwgRGF0YWJhc2UsIFNlcnZlciBJc29sYXRlZCBGbGF0IFdlYiBNb2JpbGUgSWNvbiB3aXRoIFNRTCB3b3JkLiBWZWN0b3IgSWxsdXN0cmF0aW9uIGlzb2xhdGVkIG9uIG1vZGVybiBiYWNrZ3JvdW5kLjwvcmRmOmxpPg0KCQkJCTwvcmRmOkFsdD4NCgkJCTwvcGhvdG9zaG9wOkhlYWRsaW5lPg0KCQk8L3JkZjpEZXNjcmlwdGlvbj4NCgk8L3JkZjpSREY+DQo8L3g6eG1wbWV0YT4NCiAgICAgICAgICAgICAgICAgICAgICAgICAgICAgICAgICAgICAgICAgICAgICAgICAgICAgICAgICAgICAgICAgICAgICAgICAgICAgICAgICAgICAgICAgICAgICAgICAgICAKICAgICAgICAgICAgICAgICAgICAgICAgICAgICAgICAgICAgICAgICAgICAgICAgICAgICAgICAgICAgICAgICAgICAgICAgICAgICAgICAgICAgICAgICAgICAgICAgICAgIAogICAgICAgICAgICAgICAgICAgICAgICAgICAgICAgICAgICAgICAgICAgICAgICAgICAgICAgICAgICAgICAgICAgICAgICAgICAgICAgICAgICAgICAgICAgICAgICAgICAgCiAgICAgICAgICAgICAgICAgICAgICAgICAgICAgICAgICAgICAgICAgICAgICAgICAgICAgICAgICAgICAgICAgICAgICAgICAgICAgICAgICAgICAgICAgICAgICAgICAgICAKICAgICAgICAgICAgICAgICAgICAgICAgICAgICAgICAgICAgICAgICAgICAgICAgICAgICAgICAgICAgICAgICAgICAgICAgICAgICAgICAgICAgICAgICAgICAgICAgICAgIAogICAgICAgICAgICAgICAgICAgICAgICAgICAgICAgICAgICAgICAgICAgICAgICAgICAgICAgICAgICAgICAgICAgICAgICAgICAgICAgICAgICAgICAgICAgICAgICAgICAgCiAgICAgICAgICAgICAgICAgICAgICAgICAgICAgICAgICAgICAgICAgICAgICAgICAgICAgICAgICAgICAgICAgICAgICAgICAgICAgICAgICAgICAgICAgICAgICAgICAgICAKICAgICAgICAgICAgICAgICAgICAgICAgICAgICAgICAgICAgICAgICAgICAgICAgICAgICAgICAgICAgICAgICAgICAgICAgICAgICAgICAgICAgICAgICAgICAgICAgICAgIAogICAgICAgICAgICAgICAgICAgICAgICAgICAgICAgICAgICAgICAgICAgICAgICAgICAgICAgICAgICAgICAgICAgICAgICAgICAgICAgICAgICAgICAgICAgICAgICAgICAgCiAgICAgICAgICAgICAgICAgICAgICAgICAgICAgICAgICAgICAgICAgICAgICAgICAgICAgICAgICAgICAgICAgICAgICAgICAgICAgICAgICAgICAgICAgICAgICAgICAgICAKICAgICAgICAgICAgICAgICAgICAgICAgICAgICAgICAgICAgICAgICAgICAgICAgICAgICAgICAgICAgICAgICAgICAgICAgICAgICAgICAgICAgICAgICAgICAgICAgICAgIAogICAgICAgICAgICAgICAgICAgICAgICAgICAgICAgICAgICAgICAgICAgICAgICAgICAgICAgICAgICAgICAgICAgICAgICAgICAgICAgICAgICAgICAgICAgICAgICAgICAgCiAgICAgICAgICAgICAgICAgICAgICAgICAgICAgICAgICAgICAgICAgICAgICAgICAgICAgICAgICAgICAgICAgICAgICAgICAgICAgICAgICAgICAgICAgICA8P3hwYWNrZXQgZW5kPSd3Jz8+/+0DwFBob3Rvc2hvcCAzLjAAOEJJTQQEAAAAAAOkHAEAAAIABBwCBQB0U1FMIERhdGFiYXNlLCBTZXJ2ZXIgSXNvbGF0ZWQgRmxhdCBXZWIgTW9iaWxlIEljb24gd2l0aCBTUUwgd29yZC4gVmVjdG9yIElsbHVzdHJhdGlvbiBpc29sYXRlZCBvbiBtb2Rlcm4gYmFja2dyb3VuZC4cAmkAdFNRTCBEYXRhYmFzZSwgU2VydmVyIElzb2xhdGVkIEZsYXQgV2ViIE1vYmlsZSBJY29uIHdpdGggU1FMIHdvcmQuIFZlY3RvciBJbGx1c3RyYXRpb24gaXNvbGF0ZWQgb24gbW9kZXJuIGJhY2tncm91bmQuHAJ4AHNTUUwgRGF0YWJhc2UsIFNlcnZlciBJc29sYXRlZCBGbGF0IFdlYiBNb2JpbGUgSWNvbiB3aXRoIFNRTCB3b3JkLiBWZWN0b3IgSWxsdXN0cmF0aW9uIGlzb2xhdGVkIG9uIG1vZGVybiBiYWNrZ3JvdW5kHAIZAAhkYXRhYmFzZRwCGQADc3FsHAIZAARpY29uHAIZAAZ2ZWN0b3IcAhkABGRhdGEcAhkABGJhc2UcAhkADGlsbHVzdHJhdGlvbhwCGQAHc3RvcmFnZRwCGQAHbmV0d29yaxwCGQAEc2lnbhwCGQAGc3ltYm9sHAIZAAN3ZWIcAhkABWRyaXZlHAIZAAZidXR0b24cAhkABGZpbGUcAhkABGhhcmQcAhkABm9iamVjdBwCGQAKcHJvdGVjdGlvbhwCGQAHd2Vic2l0ZRwCGQAEZGlzaxwCGQAEZmxhdBwCGQAHY29uY2VwdBwCGQAHZHJhd2luZxwCGQAHZWxlbWVudBwCGQAIaXNvbGF0ZWQcAhkAA3NldBwCGQALaW5mb3JtYXRpb24cAhkACnRlY2hub2xvZ3kcAhkABHRvb2wcAhkABm1vYmlsZRwCGQAHZ3JhcGhpYxwCGQAFYmxhY2scAhkABWJsYW5rHAIZAAdjbGlwYXJ0HAIZAAxjb250ZW1wb3JhcnkcAhkABGNvb2wcAhkABmRldmljZRwCGQAIaGFyZHdhcmUcAhkAC2lsbHVzdHJhdG9yHAIZAAZtb2Rlcm4cAhkAB3JvdW5kZWQcAhkACnNpbGhvdWV0dGUcAhkABXN0eWxlHAIZAAZ0cmVuZHkcAhkAAnVpHAIZAAR1bml0HAIZAAZhY2Nlc3McAhkABmJhY2t1cBwCGQAIY29tcHV0ZXIcAhkAB2Nvbm5lY3T/7AARRHVja3kAAQAEAAAAZAAA/9sAQwACAQECAQECAgICAgICAgMFAwMDAwMGBAQDBQcGBwcHBgcHCAkLCQgICggHBwoNCgoLDAwMDAcJDg8NDA4LDAwM/9sAQwECAgIDAwMGAwMGDAgHCAwMDAwMDAwMDAwMDAwMDAwMDAwMDAwMDAwMDAwMDAwMDAwMDAwMDAwMDAwMDAwMDAwM/8AAEQgDtAPqAwEiAAIRAQMRAf/EAB8AAAEFAQEBAQEBAAAAAAAAAAABAgMEBQYHCAkKC//EALUQAAIBAwMCBAMFBQQEAAABfQECAwAEEQUSITFBBhNRYQcicRQygZGhCCNCscEVUtHwJDNicoIJChYXGBkaJSYnKCkqNDU2Nzg5OkNERUZHSElKU1RVVldYWVpjZGVmZ2hpanN0dXZ3eHl6g4SFhoeIiYqSk5SVlpeYmZqio6Slpqeoqaqys7S1tre4ubrCw8TFxsfIycrS09TV1tfY2drh4uPk5ebn6Onq8fLz9PX29/j5+v/EAB8BAAMBAQEBAQEBAQEAAAAAAAABAgMEBQYHCAkKC//EALURAAIBAgQEAwQHBQQEAAECdwABAgMRBAUhMQYSQVEHYXETIjKBCBRCkaGxwQkjM1LwFWJy0QoWJDThJfEXGBkaJicoKSo1Njc4OTpDREVGR0hJSlNUVVZXWFlaY2RlZmdoaWpzdHV2d3h5eoKDhIWGh4iJipKTlJWWl5iZmqKjpKWmp6ipqrKztLW2t7i5usLDxMXGx8jJytLT1NXW19jZ2uLj5OXm5+jp6vLz9PX29/j5+v/aAAwDAQACEQMRAD8A/fyiiigAooooAKKKKACiiigAooooAKKKKACiiigAooooAKKKKACiiigAooooAKKKKACiiigAooooAKKKKACiiigAooooAKKKKACiiigAooooAKKKKACiiigAooooAKKKKACiiigAooooAKKKKACiiigAooooAKKKKACiiigAooooAKKKKACiiigAooooAKKKKACiiigAooooAKKKKACiiigAooooAKKKKACiiigAooooAKKKKACiiigAooooAKKKKACiiigAooooAKKKKACiiigAooooAKKKKACiiigAooooAKKKKACiiigAooooAKKKKACiiigAooooAKKKKACiiigAooooAKKKKACiiigAooooAKKKKACiiigAooooAKKKKACiiigAooooAKKKKACiiigAooooAKKKKACiiigAooooAKKKKACiiigAooooAKKKKACiiigAooooAKKKKACiiigAooooAKKKKACiiigAooooAKKKKACiiigAooooAKKKKACiiigAooooAKKKKACiiigAooooAKKKKACiiigAooooAKKKKACiiigAooooAKKKKACiiigAooooAKKKKACiiigAooooAKKKKACiiigAooooAKKKKACiiigAooooAKKKKACiiigAooooAKKKKACiiigAooooAKKKKACiiigAooooAKKKKACiiigAooooAKKKKACiiigAooooAKKKKACiiigAooooAKKKKACiiigAooooAKKKKACiiigAooooAKKKKACiiigAooooAKKKKACiiigAooooAKKKKACiiigAooooAKKKKACiiigAooooAKKKKACiiigAooooAKKKKACiiigAooooAKKKKACiiigAooooAKKKKACiiigAooooAKKKKACiiigAooooAKKKKACiiigAooooAKKKKACiiigAooooAKKKKACiiigAooooAKKKKACiiigAooooAKKKKACiiigAooooAKKKKACiiigAooooAKKKKACiiigAooooAKKKKACiiigAooooAKKKKACiiigAooooAKKKKACiiigAooooAKKKKACiiigAooooAKKKKACiiigAooooAKKKKACiiigAooooAKKKKACiiigAooooAKKKKACiiigAooooAKKKKACiiigAooooAKKKKACiiigAooooAKKKKACiiigAooooAKKKKACiiigAooooAKKKKACiiigAooooAKKKKACiiigAooooAKKKKACiiigAooooAKKKKACiiigAooooAKKKKACiiigAooooAKKKKACiiigAooooAKKKKACiiigAooooAKKKKACiiigAooooAKKKKACiiigAooooAKKKKACiiigAooooAKKKKACiiigAooooAKKKKACiiigAooooAKKKKACiiigAooooAKKKKACiiigAooooAKKKKACiiigAooooAKKKKACiiigAooooAKKKKACiiigAooooAKKKKACiiigAooooAKKKKACiiigAooooAKKKKACiiigAooooAKKKKACiiigAooooAKKKKACiiigAooooAKKKKACiiigAooooAKKKKACiiigAooooAKKKKACiiigAooooAKKKKACiiigAooooAKKKKACiiigAooooAKKKKACiiigAooooAKKKKACiiigAooooAKKKKACiiigAooooAKKKKACiiigAooooAKKKKACiiigAooooAKKKKACiiigAooooAKKKKACiiigAooooAKKKKACiiigAooooAKKKKACiiigAooooAKKKKACiiigAooooAKKKKACiiigAooooAKKKKACiiigAooooAKKKKACiiigAooooAKKKKACiiigAooooAKKKKACiiigAooooAKKKKACiiigAooooAKKKKACiiigAooooAKKKKACiiigAooooAKKKKACiiigAooooAKKKKACiiigAooooAKKKKACiiigAooooAKKKKACiiigAooooAKKKKACiiigAooooAKKKKACiiigAooooAKKKKACiiigAooooAKKKKACiiigAooooAKKKKACiiigAooooAKKKKACiiigAooooAKKKKACiiigAooooAKKKKACiiigAooooAKKKKACiiigAooooAKKKKACiiigAooooAKKKKACiiigAooooAKKKKACiiigAooooAKKKKACiiigAooooAKKKKACiiigAooooAKKKKACiiigAooooAKKKKACiiigAooooAKKKKACiiigAooooAKKKKACiiigAooooAKKKKACiiigAooooAKKKKACiiigAooooAKKKKACiiigAooooAKKKKACiiigAooooAKKKKACiiigAooooAKKKKACiiigAooooAKKKKACiiigAooooAKKKKACiiigAooooAKKKKACiiigAooooAKKKKACiiigAooooAKKKKACiiigAooooAKKKKACiiigAooooAKKKKACiiigAooooAKKKKACiiigAooooAKKKKACiiigAooooAKKKKACiiigAooooAKKKKACiiigAooooAKKKKACiiigAooooAKKKKACiiigAooooAKKKKACiiigAooooAKKKKACiiigAooooAKKKKACiiigAooooAKKKKACiiigAooooAKKKKACiiigAooooAKKKKACiiigAooooAKKKKACiiigAooooAKKKKACiiigAooooAKKKKACiiigAooooAKKKKACiiigAooooAKKKKACiiigAooooAKKKKACiiigAooooAKKKKACiiigAooooAKKKKACiiigAooooAKKKKACiiigAooooAKKKKACiiigAooooAKKKKACiiigAooooAKKKKACiiigAooooAKKKKACiiigAooooAKKKKACiiigAooooAKKKKACiiigAooooAKKKKACiiigAooooAKKKKACiiigAooooAKKKKACiiigAooooAKKKKACiiigAooooAKKKKACiiigAooooAKKKKACiiigAooooAKKKKACiiigAooooAKKKKACiiigAooooAKKKKACiiigAooooAKKKKACiiigAooooAKKKKACiiigAooooAKKKKACiiigAooooAKKKKACiiigAooooAKKKKACiiigAooooAKKKKACiiigAooooAKKKKACiiigAooooAKKKKACiiigAooooAKKKKACiiigAooooAKKKKACiiigAooooAKKKKACiiigAooooAKKKKACiiigAooooAKKKKACiiigAooooAKKKKACiiigAooooAKKKKACiiigAooooAKKKKACiiigAooooAKKKKACiiigAooooAKKKKACiiigAooooAKKKKACiiigAooooAKKKKACiiigAooooAKKKKACiiigAooooAKKKKACiiigAooooAKKKKACiiigAooooAKKKKACiiigAooooAKKKKACiiigAooooAKKKKACiiigAooooAKKKKACiiigAooooAKKKKACiiigAooooAKKKKACiiigAooooAKKKKACiiigAooooAKKKKACiiigAooooAKKKKACiiigAooooAKKKKACiiigAooooAKKKKACiiigAooooAKKKKACiiigAooooAKKKKACiiigAooooAKKKKACiiigAooooAKKKKACiiigAooooAKKKKACiiigAooooAKKKKACiiigAooooAKKKKACiiigAooooAKKKKACiiigAooooAKKKKACiiigAooooAKKKKACiiigAooooAKKKKACiiigAooooAKKKKACiiigAooooAKKKKACiiigAooooAKKKKACiiigAooooAKKKKACiiigAooooAKKKKACiiigAooooAKKKKACiiigAooooAKKKKACiiigAooooAKKKKACiiigAooooAKKKKACiiigAooooAKKKKACiiigAooooAKKKKACiiigAooooAKKKKACiiigAooooAKKKKACiiigAooooAKKKKACiiigAooooAKKKKACiiigAooooAKKKKACiiigAooooAKKKKACiiigAooooAKKKKACiiigAooooAKKKKACiiigAooooAKKKKACiiigAooooAKKKKACiiigAooooAKKKKACiiigAooooAKKKKACiiigAooooAKKKKACiiigAooooAKKKKACiiigAooooAKKKKACiiigAooooAKKKKACiiigAooooAKKKKACiiigAooooAKKKKACiiigAooooAKKKKACiiigAooooAKKKKACiiigAooooAKKKKACiiigAooooAKKKKACiiigAooooAKKKKACiiigAooooAKKKKACiiigAooooAKKKKACiiigAooooAKKKKACiiigAooooAKKKKACiiigAooooAKKKKACiiigAooooAKKKKACiiigAooooAKKKKACiiigAooooAKKKKACiiigAooooAKKKKACiiigAooooAKKKKACiiigAooooAKKKKACiiigAooooAKKKKACiiigAooooAKKKKACiiigAooooAKKKKACiiigAooooAKKKKACiiigAooooAKKKKACiiigAooooAKKKKACiiigAooooAKKKKACiiigAooooAKKKKACiiigAooooAKKKKACiiigAooooAKKKKACiiigAooooAKKKKACiiigAooooAKKKKACiiigAooooAKKKKACiiigAooooAKKKKACiiigAooooAKKKKACiiigAooooAKKKKACiiigAooooAKKKKACiiigAooooAKKKKACiiigAooooAKKKKACiiigAooooAKKKKACiiigAooooAKKKKACiiigAooooAKKKKACiiigAooooAKKKKACiiigAooooAKKKKACiiigAooooAKKKKACiiigAooooAKKKKACiiigAooooAKKKKACiiigAooooAKKKKACiiigAooooAKKKKACiiigAooooAKKKKACiiigAooooAKKKKACiiigAooooAKKKKACiiigAooooAKKKKACiiigAooooAKKKKACiiigAooooAKKKKACiiigAooooAKKKKACiiigAooooAKKKKACiiigAooooAKKKKACiiigAooooAKKKKACiiigAooooAKKKKACiiigAooooAKKKKACiiigAooooAKKKKACiiigAooooAKKKKACiiigAooooAKKKKACiiigAooooAKKKKACiiigAooooAKKKKACiiigAooooAKKKKACiiigAooooAKKKKACiiigAooooAKKKKACiiigAooooAKKKKACiiigAooooAKKKKACiiigAooooAKKKKACiiigAooooAKKKKACiiigAooooAKKKKACiiigAooooAKKKKACiiigAooooAKKKKACiiigAooooAKKKKACiiigAooooAKKKKACiiigAooooAKKKKACiiigAooooAKKKKACiiigAooooAKKKKACiiigAooooAKKKKACiiigAooooAKKKKACiiigAooooAKKKKACiiigAooooAKKKKACiiigAooooAKKKKACiiigAooooAKKKKACiiigAooooAKKKKACiiigAooooAKKKKACiiigAooooAKKKKACiiigAooooAKKKKACiiigAooooAKKKKACiiigAooooAKKKKACiiigAooooAKKKKACiiigAooooAKKKKACiiigAooooAKKKKACiiigAooooAKKKKACiiigAooooAKKKKACiiigAooooAKKKKACiiigAooooAKKKKACiiigAooooAKKKKACiiigAooooAKKKKACiiigAooooAKKKKACiiigAooooAKKKKACiiigAooooAKKKKACiiigAooooAKKKKACiiigAooooAKKKKACiiigAooooAKKKKACiiigAooooAKKKKACiiigAooooAKKKKACiiigAooooAKKKKACiiigAooooAKKKKACiiigAooooAKKKKACiiigAooooAKKKKACiiigAooooAKKKKACiiigAooooAKKKKACiiigAooooAKKKKACiiigAooooAKKKKACiiigAooooAKKKKACiiigAooooAKKKKACiiigAooooAKKKKACiiigAooooAKKKKACiim+aMev0oAdRXl/xa/bQ+EvwISb/AITL4leB/DLw/ei1DWreKY/SLfvP/fNfNPxN/wCDiP8AZd+Ho22fjHVvFsyj5o9B0O5nX8JZVij/APHqAPuaivyY+I3/AAdZeC7B5E8I/CPxZrC/wS6vqlvpyn32xLO1eF+PP+DpH4x64JE8O+Afh3oCSfde7a81KWP/AMfiX/x2gD92dwXvQsisODu+lfzg+NP+C/f7VHjNXSP4gafoMMn8Ok6BZxbf91pUdv8Ax6vJ/Fn/AAUt/aG8eb11T41fEqRJPvRwa3Lax/8AfMOxaAP6lGmCqzN8qr3PFc34k+NHg/wgG/tbxV4b0vb1+16pBBt/76cV/KH4i+KnirxlI7614o8Uas7fea91e4ud3/fbtWC1nDMdzwwu/q6KzUAf1QeIf+CgvwL8JBv7R+MfwxtyvUHxNZs35B64nV/+CxX7MeiErN8aPBDMv/PvdPcf+i0av5m4YUi+4ir9F21MrMP4moA/o91L/gur+yvpqH/i69ncN6W+j6jL/wCg29YGpf8ABwX+y7Z7vL8baxd7f+eXhq/P84lr+eUL/epyq1AH9AV5/wAHFv7NMG7y9b8XXG1tv7vwzdc/99YqrN/wcefs2o21bvx1J7p4bl/q1fgQsf8AwKl8ugD98/8AiJC/Zv8A+fjx9/4Tj/8AxdTxf8HGv7NsgXOoeNot39/wzPx+Rr8B9v8AndTWj4+7QB/QVZf8HD/7MdyPn8TeJrf/AK6eGb3/ANlRq2tP/wCC+X7LOoEbviPcWv8A138PalH/AO0K/nb2VGy0Af0j6f8A8Ftf2WtTZVT4xeHY2b/n4tbyD/0OFa6vQP8Agqh+zn4mZVtfjX8N9zdpdaig/wDQytfzGMWX+Jqik+b73zL/ALVAH9WWhftefCjxXt/sv4m/D/Umbotr4is5W/8AHZa7bSfE2n+IIfM0++s76Prvt50lX/x01/IfNYwt96GFvqitUthfXGiyK9ncXFi69DbytE3/AI6y0Af18iQN/e/KgSKf4hX8n/g/9rr4sfDtl/sH4ofEbR/L+6LbxLexqv8AwHzdtepeC/8Agsp+1B4BZfsfxk8UXQj/AINTitdQVv8Ae86Jm/8AHqAP6cKK/nu8B/8AByh+0n4SkRtUk8A+KEX7wvtBaBm/4Fbyp/6DXtfw6/4OsvEFgVj8XfBvSb5W6zaLr8ts3/fE0T/+h0AftNRX5q/DT/g6F+BPiYRx+JPDvxG8J3DfeZtPh1CBf+BQStJ/5Dr6L+FH/BZX9mT4wzww6X8Y/CNrczcLBq8z6RJn0xdLHQB9P0Vj+E/HGi+PdKW/0PVtO1qyk4W4sbpLmFv+BISK1t6+tADqKKKACiiigAooooAKKKKACiiigAooooAKKKKACiiigAooooAKKKKACiiigAooooAKKKKACiiigAooooAKKKKACiiigAooooAKKKKACiiigAooooAKKKKACiiigAooooAKKKKACiiigAooooAKKKKACiiigAooooAKKKKACiiigAooooAKKKKACiiigAooooAKKKKACiiigAooooAKKKKACiiigAooooAKKKKACiiigAopGbbXk/7TX7bvwo/Y60FdQ+JXjvw/4VjkXdDbXM++8uv+uVum6WT/AIChoA9ZprSBa/Hf9qn/AIOsdI0xrnT/AIM/D261iRThNZ8UubS2/wB5LSItK6/77xf7tfnP+0x/wV0/aI/awFxb+KPiZrlnpNx8raRoTf2RY7f7rJDtkdf+urvQB/Rp+0R/wUa+B/7KYkTx98TfCegXkeQ2nm9FzqH/AIDQ75f/AB2vh348f8HU3wo8ItLb/D3wP4w8cXC7lW6vymi2LHsV3752X/tktfg2q/vXf+OT5nP8TN/tf3qli/pQB+ivxq/4OaP2iviV5kfhi38F/Du1bcqNYac2oXSr/wBdbpmj3f7sS18m/F/9vL41ftBMy+M/it48163k5a2l1eWC1/78xMkX/jteQxr92p4v6UALHCiztJsVZG+8+35m/wCBVYXcx/2qijX7tSxdaAJlXFSRrTYulSqu2gB8YqRVxTY1qZVzQA6NcVLGuKRVxUirQA5V/wC+qkVaaq5qZVxQAKv/AH1Uix0qrtp6rQBHsp/lfSpdlGz/AGaAIfKX/JpfK+lS+XSNH/s0AQsu6mEbasPHUbLs6UAV2XNRsu36VYZajZc0AV5FqFlqyy7qhkX/AL6oAgZf++qikXNTyLmoZFxQBBIuKikXFWJBUMvegCvIuajk+ZWVvmVuxqaRfvVHL9ygC54P8ba58N9SW+8Oaxq3h68jbcs+l3stnKrf70TK1fSvwb/4Le/tQfBExpY/FbVtfs12j7N4kt4tXRh6b5V83/vmSvlhvvVDL9ygD9avgb/wde+KtJaOD4kfCnRdaj4V73w3qL2Mv+99nuN6t/39WvtT4A/8HEX7MfxuaGC/8W6h8P8AUJsL9n8VWDWaZ/6+E3wf99SLX83cv36ibcu7bQB/Yr4G+I/h/wCKPh+PVvDWuaR4g0ub/VXmm3kV1BJ9HRitbYbcOK/jw+Ffxk8XfAvxCmr+CPFHiLwfqanP2nRtRlsXb/e2Mu7/AIFur7w/Zf8A+DmH4+fBRraz8bw+H/ito8eA51CL+zdT2D+7cwL5bN/vxN/vUAf0QUV8E/sl/wDBxN+zz+0pJa6frmsXnwv8Q3G1PsnidVis5Hbsl6haDH/XRkb/AGa+6NG1qz1/S4LywuoL20ukWSG4gkEsUyHoysOCPpQBeooooAKKKKACiiigAooooAKKKKACiiigAooooAKKKKACiiigAooooAKKKKACiiigAooooAKKKKACiiigAooooAKKKKACiiigAooooAKKKKACiiigAooooAKKKKACiiigAooooAKKKKACiiigAooooAKKKKACiiigAooooAKKKKACiiigAooooAKKKKACiiigAooooAKKKKACiiigAoopGbbQAteE/tof8FGfhH+wR4TXUPiJ4ot9PvbqMvYaNaj7Tqupf9cbdfm2/wC222Nf4mWvgf8A4Kzf8HE9p8HdV1b4c/AW40/WvE9s722qeLXUXNhpMi/K0Von3bidW+87fuo27SHO38T/AB74/wBe+KnjHUPEXibWdU8Qa/q0vm3uo6jcNc3F0/q7t8zf7v3V/h20Afoh+3D/AMHLXxb+PUl5o/wrtV+FHhmTci3iMl1r10n95pseXb/7sSsy/wDPWvzn8TeKNU8a+IrrWNa1LUNY1bUH33V/f3D3NzcN/eeV2Zm/4E1UaKACiiigAHWpo/uCoU+631qwnVaAJE+9UkX3Kjj+XdU0f3xQBMn3qli/pUUXapo1+7QBJGvzLU8X9Kii7VNH9wUASRr92po/nqNPvVIv3KAJY0+Wpo1zUS/fNTxf0oAfU0a4qML91amjXFADlWpFXFJGuKmVdtACKuaf5X0pVWpFjoAh2f7VI0WKn2f7NDR4Hy0AVXjpjLtqcr/FUbLQBXZcVCy5q0y5qGX7lAFeQf8AfVQyLU8v9aikX71AELLmoZfuVLL/AFqORfvUAQS/fqGRc1YfrVc/foAgl/rTJF+8tTH7gqvL1oAjfrVeXrViXpUT/eoAgP3BVc/fqw/Rqil/pQBFRR/G1FABXtX7I3/BRD4x/sO6sk3w58b6ppOn+Zvm0a4P2zSLr+9vtn/dr/vJsk/2q8VooA/er9g7/g5q+Hvxqls/D3xm02P4Y+IZiIl1mB3n0C5f/bdv3tr/ANtN0a/89a/TrQNfsfFGjWuoabeWuoWN7Es1vc20qyQ3CMMh0dflZT6iv426+o/+Cdf/AAVu+Kn/AATn8RW9voN+3iLwG8vmX/hLUZ2+xyBur25+ZrWX/aT5W/jRqAP6kaK8L/YU/b7+H/8AwUJ+D0XizwHqDM1uyw6tpFxtTUNFuGXd5U6A9+SrruSReVbrj3SgAooooAKKKKACiiigAooooAKKKKACiiigAooooAKKKKACiiigAooooAKKKKACiiigAooooAKKKKACiiigAooooAKKKKACiiigAooooAKKKKACiiigAooooAKKKKACiiigAooooAKKKKACiiigAooooAKKKKACiiigAooooAKKKKACiiigAooooAKKKKACiiigAooooAK/KH/g5B/4Kh6p8CPC9n8DvAepTaf4k8XWH2zxLqNrLsm0/TnZo0t0ZfmSS42vub7yxL8v39y/q6/3a/ma/wCDgjRtW0n/AIKyfE59V8xlvk0y6sHP3WtPsECJt/2VkSVf95WoA+L1VY1VVCqq/KoH8NOoooAKKKKACiiigB0X3KmX71QxfcqZfvUATRfcqZfvVDF9ypl+9QBIn3W+tWIvv1Cv3DU0X36AJF/iqwnVarjpViL79AEkXapo1+7UK/xVYTtQBJF2qaP7gqFPu1NH98UATJ96pF+5UcXapo/4aAJk+9UsX9KiT71TR/cFAEiripVXbTE+9UkX3KABo6ay4qZ9tQy9aAIZFqORfvLUzdBVc/foAjfrVeXrViXpVc/foAjP3BVc/fqxL0qJ/vUAQS9Kif71Sv0aon+9QBA/Rqif71Sv0aopf6UAQP0aopf6VLIfvVFL/SgCCQ/eqKX+lSv99qhl+5QBDIfvVDL9yp2+81QP/DQBH/G1FB60UAFFFFABRRRQB65+xH+2j4y/YL/aD0n4geDLmTzrVlg1LTmfbb65ZM3721mX+633lb7ySbWX7tf1Rfs9/HDQf2lfgp4X8feGLhrrQfFmnRalZu42yKki7tjj+F0bKMv8LKa/kBr+lL/g3b0bWNH/AOCUXw9/tXzFjvLnU7rTlf8AhtHv52j/AOAtyy/7LUAfcVFFFABRRRQAUUUUAFFFFABRRRQAUUUUAFFFFABRRRQAUUUUAFFFFABRRRQAUUUUAFFFFABRRRQAUUUUAFFFFABRRRQAUUUUAFFFFABRRRQAUUUUAFFFFABRRRQAUUUUAFFFFABRRRQAUUUUAFFFFABRRRQAUUUUAFFFFABRRRQAUUUUAFFFFABRRRQAUUUUAFFFFABX53/8F7f+CUl5+3f8KLDxz4FsxN8UPAtvJHBagqreINPLb3s8t8vmo254t38TOn8e5f0QpGXdQB/GlqGn3Gk6hcWt1bzWl1ayvBPBOjRywurbXR0b5lZWVlZW+ZWqGv6Nv+CrH/BCfwX+3ubzxj4SmtPA/wAWGTL6isR/s/XsD5VvUT5vM7LcJ+8Xusiqqr+Cf7UX7IfxG/Yx+Ir+F/iV4X1Dw3qW5vsski+ZZ6ki/wAdtcL+7mX/AHW3L/Eqt8tAHmtFFFABRRRQA6Opl+9Vdf4qsJ1WgCZfuGpovv1Xi7VNG/3aAJk+631qwnVarxdqmjf7tAE0f8VWE6rVdPvVNF92gCaLtU0b/dqEdaki+5QBYi7VNH9wVXjbFTxf0oAnT71SL9yoY2+7U0bZagCwn3qli/pVeNqlVsUAWI2xUqtx8tVlapN9AE/m/Somb+Go/M96GbFABI1QSN95qkZs1EzUANfrUDP81Pkb+Ko5fuUARy9Krn79TSPhqhkb71AEcvSq8vWpZf61HI33qAIpelRP96pX61XP36AI36NUUv8ASpT9wVXP36AI5D96opf6VLL0qJ/vUAQSH71Qy/cqZ+jVE/3qAIv42ooH8VFABRRRQAUU1mVfvNtr9D/+CZv/AAb6fET9sC70/wAVfEiPUvht8N5GWYCaHyta1qL7223hdf3CN/z2lX+L5Eb71AHhn/BLv/gmf4r/AOCk/wAdodGsIbrTfA2iypL4o14LtjsYW+byIm/iuZV4Rf4fvt8q/N/T98O/AWk/CvwLo/hnQLGHTdE8P2UOn2FrEPkt4IkCIg/3VUVz/wCz3+zn4N/ZX+FWm+CfAWg2fhzw1pK4htbZeZGP35ZHb5pJWPLO5Zm713lABRRRQAUUUUAFFFFABRRRQAUUUUAFFFFABRRRQAUUUUAFFFFABRRRQAUUUUAFFFFABRRRQAUUUUAFFFFABRRRQAUUUUAFFFFABRRRQAUUUUAFFFFABRRRQAUUUUAFFFFABRRRQAUUUUAFFFFABRRRQAUUUUAFFFFABRRRQAUUUUAFFFFABRRRQAUUUUAFFFFABRRRQAUUUUAFcX8bfgH4N/aQ8BXXhfx14Z0nxVoN9zNZajbiaPd/fXujr/C6kMvY12lFAH4x/tw/8GtSSS3eufAPxQsG/Mv/AAi/iWdmQf7NvfBSy/3VWdW/661+Vf7Rf7J3xK/ZG8UNo/xJ8F694PumZo4pL23/ANFuveG4XdFKv+5I1f14Vi+NvAWi/Ejw1c6N4i0fS9d0i8XbcWV/apdW0w9GjcFW/KgD+OWiv6HP2p/+Daf4B/HJ7q+8GrrHwp1mb5lOjP8AadMZvVrSb5VH+zE8dfnR+01/wbZftEfBA3F54Vt9B+KWkw7pFfRrj7LqG3/atrhl3N/spI9AH59DrU0f3BW18TfhP4q+CfiR9J8Z+GvEHhLVI22ta6zp0tjL/wABWVV3f8BrDoAsDrUi/cqGNvu1PF/SgCdPvVLF/Sq8b/LUsXWgCwrfdqeL+lQRdKmjb7rUATRt92pY3+aoI2qaNs0AWE61MrfxVVVqmVqALCtmplbFVVbFSq2KALKt/wB9VIrZqurYqRWoAsLJT9xqusmaXzP9rbQBP5v0prNiovN/2qN9ADmaoyd1DNimM2aAGs2KiZsU5mqNmxQBHI1RyPUjN/FUEjUAMkb7zVDL3qWX+lQSNmgBsv36hl+5TpHytRy96AIpf61DI33mqUt95qhl70ANfrVd+rVNL9+oW+4KAI361XP36ll/rUU0ix7dzKnmfKuW27qAG0V75+zd/wAEu/j/APtYGCXwX8L/ABNcabcfd1XUoP7L07b/AHvOuNiyf9s91foZ+y//AMGpF/eSW+ofGL4kQ2sWVeTR/CUHmSMv903lwu1f+AQf8CoA/HlI2mmjjRWeSZtkaIu5pG/uqv8AE3+ytfan7GP/AAQQ+P8A+11JZ6heaD/wrTwncbX/ALX8TRPBPIn96Gy/17/L93zPKVv71fu1+yb/AMEvvgb+xTFDN4C8AaPY61GoDa1eqdQ1WRvX7TNudf8AdTav+zX0GFCUAfFf7Bn/AAQu+CP7Dctlrf8AZcnj7x3a4kXxB4gjSVraT1tbf/VW/s3zSf7dfairtpaKACiiigAooooAKKKKACiiigAooooAKKKKACiiigAooooAKKKKACiiigAooooAKKKKACiiigAooooAKKKKACiiigAooooAKKKKACiiigAooooAKKKKACiiigAooooAKKKKACiiigAooooAKKKKACiiigAooooAKKKKACiiigAooooAKKKKACiiigAooooAKKKKACiiigAooooARm2iuG8CftCeDfiT8Q/FXhLRPE2lah4o8FXKWut6Usu28013RHQvEfm2Mrptdcqd2M7lNdxJ/q2+lfzM/wDBXr4n+JPgt/wWZ+LXibwjr2reGfEGl6vava6jptwYLiH/AIl1ruVWX+Fv4lbcrfxK1AH9NH3hRX4s/sC/8HQs1klj4b/aE0VrgLtiXxfoVr83+9d2S/8Ajz2//fqv1s+Bf7RPgf8AaZ8Cw+JfAPirRPFmh3HS7066E6xt12OPvI/+w4Vh6UAd1RRRQAU11DdadRQBg+O/hv4f+KegyaX4m0LR/EGlzf6yz1OyivIJP95JFK18e/Hb/g3p/Zh+NpmuLbwXdeBdQmJZrnwtfvYru/6923wf+Q6+4KKAPxV+NP8Awaf6tbeZN8Ofi7Z3QYkpZ+JtJaJl/wBn7Rbsy/8AkKvk34wf8EDP2o/g/wCZIvw9j8W2cJx9o8N6pDfbv92J2SX/AMh1/S5TWQMORQB/IZ8SPgT44+C989t4w8GeLPCs0f3hq+kXFn/486Kv/j1cxbzJcJ+7dZdvdG3V/Yle6dBqVrJDcRRzwzLteOUb0Ye4NeN/FT/gm/8AAX41K58TfCD4e6lNJ964/sSCC4b/ALaxKsn/AI9QB/KzUkb1/RB8Rv8Ag3K/Zh8cuz2PhzxN4SZv+gL4huFVfok3mr+leC/ET/g1Q8KX0sj+E/i94n0ofeSLV9It9QH/AH3EYW/SgD8X1apFbNfpl4y/4NbPi9pbyHQfiH8OdajX7q3cV5p7t/3ykq/+PV5T4p/4N5P2pPDTv9l8K+GdeRe+neJLf5v91Z/KoA+KVbFSq2K+hfFH/BIr9prwbIy3nwV8bTbe9hFBfL/5BlevPfE/7Hfxd8Esy6x8K/iVpu37xm8M3qr/AN9eVQBwMbZqRWqxqXhXVtBdkv8ASdWsHX7wubKWD/0NVrO+3QxtteaFG93VaALitinrJVOO+hY/LNC30damjk3/AHWVqALKtmneb9Krjd/dan/N/tUAS+b9KZvpvzf7VNbdn7rUASNJUbNikZs/w7ahkukj+86r9WoAlZsVEzYqJtQt1+9cW6/9tVqS3VtRbbbq1w3pEvmf+g0ARs2KjZq6fQfgv408XSKuleDfGGqM33fsmh3k+7/vmKu/8N/8E4/2gPGSq+n/AAV+J0yN915PD88C/wDfUqqtAHirNmombNfWvhH/AIIZ/tUeNNrR/Cm801G/j1PV7C12/wDAWmZv/Ha9Q8Ff8G0X7RnicL/aV58N/Dqt977TrM1yy/8AAYbdv/QqAPz0ZsVDI1frf4C/4NUPEV6VbxV8ZNFsl/ij0fw9LcH8HlmT/wBBr3T4df8ABrv8EPDyI/iTxX8R/FFwvULe2+nQN/wGKLzP/IlAH4LsrN91abZRvql4tvao11cM21YoF82Rv+Ar81f0yfDb/ghx+y38M3he3+Emh6tcQ9J9buLjVGf6rM7J/wCO19FfDz4FeC/hDbiLwp4Q8L+GYwu3ZpOlwWa/+Q0WgD+Xn4S/8E0P2gfjt5LeGfg74+vILj5Y7u50ttPtv+/t15Uf/j1fVHwc/wCDYT9oDx60c3ivWPAvgG3yN8c16+q3S/8AAIR5f/kWv6CPLGOmfrTqAPyz+CH/AAaufCPwg0dx4+8ceNPHE6bWa3s/K0Wzb+8pVN8u3/tqK+1v2fP+CaPwH/ZbMcngj4W+EdHvocMuoPZC81DPr9om3y/+PV7tRQAmwUtFFABRRRQAUUjOFr42/bq/4LhfA79hxb3SrrW/+E48bW4Kjw54ekS4mhf0uZs+Vb+4dt/ojUAfYF7fw6ZayXE0scMMKM7ySNtVFXqxJ6AVyfwT+Pvg/wDaL8KXGveB/EFj4m0W3v7jTTf2T+ZbSzwPslVH+66q3G9cq3ZjX82n/BQT/gst8Yv+Cgs91perakvhHwHI3yeF9FldLe4Xt9rm+WS6bj7rbY/RFr9gf+DaL/lFnoH/AGMOtf8ApW1AH6AUUUUAFFFFABRRRQAUUUUAFFFFABRRRQAUUUUAFFFFABRRRQAUUUUAFFFFABRRRQAUUUUAFFFFABRRRQAUUUUAFFFFABRRRQAUUUUAFFFFABRRRQAUUUUAFFFFABRRRQAUUUUAFFFFABRRRQAUUUUAFFFFABRRRQAUUUUAFFFFABRRRQAUUUUAFFFFABRRRQAUUUUANk/1bfSv5e/+C5H/ACli+NP/AGFrX/03Wtf1CSf6tvpX8vf/AAXI/wCUsXxp/wCwta/+m61oA+Ua6v4NfHXxp+zt41j8SeA/FWveEdcj/wCXzS7xoJJF/uuq/LKv+zIrL/s1ylFAH6vfsgf8HTXjjwStrpfxo8I2fjSwXaj65oWzT9TVfV7dv3Erf7jRV+n37KX/AAVx+AH7Y4t7fwj8Q9Lt9cuFH/Ej1lv7M1NW/urFNt81v+uRda/ljpskayBVZVZVbdyu6gD+zRZA1Or+VH9mr/gq1+0J+yYtvb+Dvid4gXSbf5U0jV5P7V09V/urFcbti/8AXNkr76/Z0/4OvdZ0/wAi1+K/wvs9RT5Vl1LwremCUD+JvstwWVv+AzigD9tKK+N/gF/wXo/Zh/aANvbw/Ea18JalcNgWPim3fSXX/trJ+4b/AIDK1fWXhbxppPjrSI9Q0TU9P1jT7j/VXVlcpcQSfR0JWgDWopA4PeloAKKKKACiiigApNgpaKAE2D0H5Umz3b86dRQBDNaR3MbRyKsiN2YbhXP6t8HfCniHd/aHhjw7fbuv2jTYZf8A0JK6aigDzXUP2N/hHrCt9s+Fvw5ut3/Pbw1ZP/7Srn7/AP4Jz/APVW3XHwX+F7N7eGbRf5JXtVFAHz7P/wAEqv2cbshpPgn8N/l/u6JEv8qpt/wSN/ZpLZ/4Up4B/wDBaP8AGvo6igD5x/4dEfsz/wDRFfAP/gv/APr0+2/4JL/s1wBtvwU+Hvzf39KVv519F0UAeD2f/BMX9nnT23R/BX4Z7uOvh+3b+a1vab+wV8D9H2/Zvg78L4dvdfC9l/8AGq9aooA4XSf2ZfhzoRVrHwD4Js9vT7PoNrH/ACSun0vwlpehoosdNsbML08i3RP/AEEVp0UAN8r/AGm/Ohow/wB7mnUUANEaj+EU6iigAooooAKKKKACiiigAopvmjHr9K8o+O/7cfwf/ZktZH8ffErwb4Wkh6297qkS3Tf7sCkyt+C0Aes0hbaOa/Mr9oP/AIOjPgf8OEmtvAeh+LviVqEZKpNHb/2Tp7f9tbj97/3zEa+Cv2kP+Dlj9oj4zLcWnhWTw38MNLkDIv8AZFr9s1Db/tXNxuVW/wBpIkoA/oH+JXxb8L/BjwvNrXi7xHofhnR7f/WXuq3sVnAv/A5GC1+ev7Wf/Bzd8E/g2lxY/Dmx1b4sa1HlUmtFOn6Qre9zKu9/+2UTK396vwb+Kfxd8V/HLxM2s+NPE/iDxdq0jZ+2axfy3kq/7rOzbf8AdXbXO0AfXH7ZX/Bbv9oD9s+O60/UPFX/AAhnhW63IdC8L77GCRG7TTbvPm/2lZ1j/wBivkVVWNdqqqr6LTqKACv6NP8Ag2k/5RbaD/2MOs/+ljV/OXX9Gn/BtJ/yi20H/sYdZ/8ASxqAP0AooooAKKKKACiiigAooooAKKKKACiiigAooooAKKKKACiiigAooooAKKKKACiiigAooooAKKKKACiiigAooooAKKKKACiiigAooooAKKKKACiiigAooooAKKKKACiiigAooooAKKKKACiiigAooooAKKKKACiiigAooooAKKKKACiiigAooooAKKKKACiiigAooooAbJ/q2+lfy9/8FyP+UsXxp/7C1r/6brWv6hJP9W30r+Xv/guR/wApYvjT/wBha1/9N1rQB8o0UUUAFFFFABRRRQA5ep/u10Xw1+Knij4O6sl/4R8SeIPCt8rbln0fUZ7GTd/vRMu7/gVc2OlWF+9QB9lfBn/gvf8AtSfB2OKH/hYq+LLGJv8AUeJdNh1Bm/3plCT/APj9fVnwk/4OufFmnoieOvhHoOqBvlNx4f1eWxb/AHvKnSVf/IlfkbF2qaNfu0Af0D/C3/g5y/Z78ZLDF4gsPiB4OuG/1hvNIF5BH/wO1d2/8cr6J+GP/BXP9mn4tzxx6P8AGjwKsz/di1K+/syX/vm6EZr+XWLtUy/vEVW+ZfQ0Af19eEfiLoPj+zFzoetaTrVuy582wvIrmP8ANGNbXmfJn7v1r+PfRb648P3S3Gn3Fxp8y/MslpK0Ei/8CTa1eteAf2+vjh8MYUTQfjB8StNhX7sQ8Q3EsX/fErsv/jtAH9V24N3p1fzbeCv+C7X7U3guMRr8Tm1aNf4dV0Syut3/AALylb/x6vWvBf8Awcx/tA6BGF1PRPhn4gX+Iy6XcWsjf8CiuNv/AI7QB+99Ffi94T/4Om/FtrsXXPg74dvB/E1h4gmtv/HXhf8A9Cr0TQf+Dpvwrd7f7U+D3iqy9fsetWtz/wChpHQB+rtFfnB4f/4Ob/gffov9oeE/ifprt6WFnOo/75ua63Rf+DjD9m7VQPPv/G2n/wDXfw3Kcf8AfsvQB95UV8b6T/wXr/Ze1RB5nxCurPd/z8eHtRT/ANomt6z/AOC2X7Lt6F2/FzRU3f8APWwvYv8A0KGgD6qor5ntf+CxP7M12F2fGTweNy7v3kssf80q5F/wVr/Ztni3L8ZvAu3/AGr/AG/zFAH0ZRXzt/w9n/Zv/wCizeA//Bj/APWqtN/wV2/ZrtSyt8ZfBLbf7t4zfySgD6Sor5fuf+Czf7MNkPn+MPhlv9yO4k/9BirJ1D/guV+y3pyZ/wCFqWtx7QaNqMn8regD62or4j1j/g4M/Zl0sHy/FfiC+Zf+ffw1e8/99ItcrrH/AAcofs86ajeRZ/EjUGX/AJ4aCkef+/sy0AfoNRX5heJf+Dob4XWm7+yvhv8AES+9PtD2VsG/8ivXBeJv+DqKMRldF+Cdwz9mv/FCr/46lu3/AKFQB+vVFfh14o/4Oivixd7l0f4b/DvTVb7pu7i9vmX/AL5eKvLPGX/BxZ+054kkf7Drfg3w8rfdXT/DiSMv4zPLQB/QtvXdtz81NedYVZmO1VXJJ4Wv5i/HX/BXn9pr4gMWvvjP40tlk6ppksGmr/5LxI1eKePPjn44+KEzv4m8aeMPELSfe/tPW7q6Vv8AgLuy0Af1L/Ej9sn4S/CFJT4p+JngPw+0I+ZL/XrWGT/vgvu/Svnn4nf8HAH7LXw2hkWL4iSeJrqP/lhoGkXV9u+j7Fi/8fr+bv7PHG29I40f1CKrUjszt8zbqAP2z+LX/B1j4D0hpE8E/C3xhr5xtSXWL+30qLPrtTzn/lXy98YP+Dnv9oDxwskPhfRfAPgeH+CWKyl1O6X/AIHM/l/+Qq/OaXpUT/eoA9p+N3/BSz4/ftELNH4t+LvjjULW4b57K21FtPs2/wBnybXyo/8Avpa8Ik+a4eRv9ZJ8zyH7zf7zfxVO/Rqil/pQBFRR/G1FABRRRQAUUUUAFf0af8G0n/KLbQf+xh1n/wBLGr+cuv6NP+DaT/lFtoP/AGMOs/8ApY1AH6AUUUUAFFFFABRRRQAUUUUAFFFFABRRRQAUUUUAFFFFABRRRQAUUUUAFFFFABRRRQAUUUUAFFFFABRRRQAUUUUAFFFFABRRRQAUUUUAFFFFABRRRQAUUUUAFFFFABRRRQAUUUUAFFFFABRRRQAUUUUAFFFFABRRRQAUUUUAFFFFABRRRQAUUUUAFFFFABRRRQAUUUUANk/1bfSv5e/+C5H/ACli+NP/AGFrX/03Wtf1CSf6tvpX8vf/AAXI/wCUsXxp/wCwta/+m61oA+UaKKKACiiigAooooAdF9ypovv1Cn3FqaL79AE0X3KmX71Qp9xami+/QBMv3DU0X36hi+5Uy/eoAkj/AIqmj++KjX7hqaL79AEkXapo1+7UK/xVYTqtAEkXapo/uCoU+7ViPoKAJE+9UkX3Kji7VNH/AA0ASL981NGzf3qji7VNH9wUASKzf3m3VKu7+8zUxPvVIv3KAE+b/bpGZl/ibb/vVMRsqKRcUAQMzY+81QybttWJelVz9+gCN+tQSL96p5elVz9+gCN+tVz9+rEvSon+9QBAfuCq8vWrD9GqJ/vUAQS9Kif71SyH71RS/wBKAIH6NUUv9Klf77VDL9ygCGRfvVFL/SpW/iqF/wCGgCF/vtUL/wANTS/fqFvuUARnrRQetFABRRRQAUUUUAFf0af8G0n/ACi20H/sYdZ/9LGr+cuv6NP+DaT/AJRbaD/2MOs/+ljUAfoBRRRQAUUUUAFFFFABRRRQAUUUUAFFFFABRRRQAUUUUAFFFFABRRRQAUUUUAFFFFABRRRQAUUUUAFFFFABRRRQAUUUUAFFFFABRRRQAUUUUAFFFFABRRRQAUUUUAFFFFABRRRQAUUUUAFFFFABRRRQAUUUUAFFFFABRRRQAUUUUAFFFFABRRRQAUUUUAFFFFABRRRQA1vmU1/N/wD8HG37Puq/B3/gpb4g8SXMMn9ifEqxtdb024+8kjxQR2txFu/vJJErbf7sqf3q/pCr52/4KUf8E9fCv/BR39nm68Ha9jTdYsXN7oGtJFvm0e927Q+3+OJ1+SRP4lPZlVlAP5VKK9J/av8A2SPHn7FHxhvfBHxC0SbSdYtd0ltKNz2uqW+dq3FtL92WJvX7yt8rKrfLXm1ABRRRQAUUUUAOT7i1NF9+oYvuVMv3qAJovuVMv3qhX7hqZfvUATRfcqZfvVXT7rfWrCdVoAmXoamX71V4u1TRv92gCZf4qsJ1Wq8Xapo/uCgCaLtU0b/dqFPvVJF9ygCxF2qaP7gqurZqeL+lAE6feqSL7lQq2alVs0ATq2anVsVWB21IslAEzyf7VRyNim+b701mxQAP1qu/SpGaoZHoAbL0qufv1NI1QyNigCOXpUT/AHqdL/WmSdDQBA33WqN/vVK/Wq5+/QBG/Rqil/pUsvSq8vWgCOQ/eqGX7lTP0aon+9QBA/32qF/4amk/iaopf6UAQS/fqFvuVNIfvVDJ8lAEZ60UfxtRQAUUUUAFFFNLKqszNtVfmYn+GgAZljVmZtqr8zH+7X9PX/BDb9nnVP2bP+CZ3w70fXreez1rWIrjX7q2lGHtfts7Txoy/wALLE0W5ezbq/NP/gh3/wAEPdV+OHibRfjF8XtIm03wHp8qX+g6FexbZvEkqtuinmRvmWzVsMqt80/y/wDLP7/7zqu2gBaKKKACiiigAooooAKKKKACiiigAooooAKKKKACiiigAooooAKKKKACiiigAooooAKKKKACiiigAooooAKKKKACiiigAooooAKKKKACiiigAooooAKKKKACiiigAooooAKKKKACiiigAooooAKKKKACiiigAooooAKKKKACiiigAooooAKKKKACiiigAooooAKKKKACiiigDyf9rj9i74c/tvfCyXwj8R/D8OuaflntLjd5V7pczDb51vMvzRyfT5W6MGXivwn/AOChv/BvT8WP2Rbi/wDEHgKO8+KngCHdL5ljb/8AE601P+ni1T/Wqv8Az1g3fd3MiV/RhSMu6gD+MxvlZlPysrMrA/eVv4lb/aor+oT9uD/gjR8Df27HutS8Q+Gf+Ef8X3A58SeHytjqDn1m+Ux3H/bVGb0Za/JL9sP/AINpvjf8BJLrUvh7Np/xa8PQ7nWOy22OsRp/tWzt5crf9cpGZv7lAH50UVqeNvBGt/DXxRcaH4k0fVvD+tWbbZ9P1Oze1uoW/wBqJwrf+O1l0AC/xVNH/DUI61JF9ygCxF2qaNvutUKfeqWL+lAE6feqaL7tV1b7tTxf0oAnjfLVJF9yoFf5ali60AWI2+ap4v6VAnWplb+KgCaNvu1LG2Kgjapo2zQBYTrUitiq6tUitmgC0rZqQNiqytmpVbNAE6tsp6yfhVdW/u07zfegCZ5P9qmtJUfm+9FADmbNRM2aGkxTGb/vqgBsjVHI9OZs1EzZoAYx/iqOSnM2ahZsUANl+/UMjYp0jVHI9AEUv9ajkb71Pkb7zVDL3oAa/Wq8vWpm+9UMv3KAIz9wVXP36ll/rUMjfeagBkvSon+9Ur9arv1agBtFFNZljjZmZVVfvE/dWgB1Fe4fsq/8E3fjd+2pdQ/8K9+H+tappkjYbWbtPsOlR/7X2mXajf7qb2/2a/U79jH/AINZvDHhKW01j44eK5vF15HtdvD/AIfZ7PTVPpLcttnmX/cWL/gVAH5B/s1/spfET9r/AMfJ4a+G/hLVvFWq7l8/7Mm22sVb+O4mbbFCv+07L/s7q/bL/gmd/wAG5Hg79m2/07xl8YptN+IXja3K3NrpSR7tB0eUchtrruu5V/vyKqL/AAx5Aav0Q+D3wO8I/s/+B7Xwz4J8OaL4V0GzH7qw0y1S3hVuPmIX7zHuxyzetdhQA2NFjXC9KdRRQAUUUUAFFFFABRRRQAUUUUAFFFFABRRRQAUUUUAFFFFABRRRQAUUUUAFFFFABRRRQAUUUUAFFFFABRRRQAUUUUAFFFFABRRRQAUUUUAFFFFABRRRQAUUUUAFFFFABRRRQAUUUUAFFFFABRRRQAUUUUAFFFFABRRRQAUUUUAFFFFABRRRQAUUUUAFFFFABRRRQAUUUUAFFNY7FJr4qH/Bbv4X+Bf25fHXwN+I0n/CBal4b1KGy0vXryXdpOpiW3glUSy8fZZN0u35/wB22374b5aAPteiqun30Oo2kU0Ekc0MyK6SRtuV1OCCD3HPWrVABTXUN1p1FAHn/wAdv2Yvh5+054ZOj/ELwX4c8YaftKpHqlgly0PvG5G+Nv8AaRlavz5/aa/4NbPhD8RmuL74a+JvE3w3vpCzpZyt/bGmJ6KqSkToP92U/Sv1GooA/m8/aI/4NyP2lvgc01zouiaH8StLhGfP8OX4W52+9tcbJN3+zGz18afEz4R+LPghrj6X4z8MeIvCWoRtta31nTp7GTd/s+aq7v8AgNf2GOobrWX4t8D6P4+0aTTdd0nTdZ06b/WWt9apcwSfVHBWgD+OtOit+tSRda/pk+N3/BCb9l/45NPNcfDPT/DV/cNlrvw1cS6Qy/8AbKI+T+cdfJPxk/4NRfDF81xN8P8A4teINH/iitPEGlxalGPbzYWgb/x1qAPxZTrU0bfdav0A+Kf/AAbPftIeA3dtBbwH42h7f2fq5s5z/wAAukRf/IlfOvxK/wCCXX7RXwg85te+DPxAjhh+/cWWmtqUC/8AA7VpVoA8Njapo2zS65ot94TvGttWs7zSrmM7Wiv7d7aRf+AuqtUULeYu5PmX1HzUAWFapo3qurYqVWxQBOrYqZWzVdWxUin+KgCyrZqVWzVVWzUqtmgCdWzUqtmqytUm+gCfzfpSpJ/tVCrUeZu/hoAsea396mvJ/tVDu/2aPN96AJGkprNmo2k/vU1mxQArNmopGoY/3ajZqACR6jZsUrNmoi38NACM2KhZv++qezVCzUANkaoWbFStuP8AD81VpriOORUaSNW9C67qAGyNUcveu5+HH7NvxF+MlwkfhLwB428TNJ906Zod1cq3/AlTb/49X0D8Lv8AghL+1N8VEjkj+F9x4et5PvTeINTtdP2/7yb2l/8AHKAPj+R/vVDL3r9WfhN/wap/EbXZIX8cfE/wf4chbDSRaPYXGqTr7Zk8hN3/AH1X1X8Ff+DYX9n/AMAmCfxZqXjjx/dR/wCsjvNQGn2cn/bK1VH/AO+pGoA/n1kZVkVGZVdvlUFvmb/dr3T9n/8A4Jh/H/8Aai+zyeDPhT4uvrG6+5qN7a/2Zp+318662K3/AAHdX9K3wJ/YA+Cv7MgjbwL8L/Bfh24j5W8t9MjkvPxuH3St/wB9V7F5Y/3vrQB+Gf7Nv/Bqh438UeRefFX4i6L4Xt2Cu+neHbZtRvP903EuyJG/3Uev0L/Ze/4IXfs2/ssPb3lj4Dt/F2uWp3LqviqT+1Z1P95I3HkRt/1ziWvsOigCtaWUdjbRwwxxxxRKqIiLtVQOgA7VZoooAKKKPuigAorxv9sH9u74X/sLeAj4g+JHia00iOYH7Fp8f7/UdUdf4Le3X53b3+6v8RWsP/gnJ+29D/wUI/ZyX4kWegTeG9NvNZ1CwtLO4uBPP5FtMYkeQr8qyNjcVXcq9NzfeoA+gKKKKACiiigAooooAKKKKACiiigAooooAKKKKACiiigAooooAKKKKACiiigAooooAKKKKACiiigAooooAKKKKACiiigAooooAKKKKACiiigAooooAKKKKACiiigAooooAKKKKACiiigAooooAKKKKACiiigAooooAKKKKACiiigAooooAKKKKACiiigAooooAKKKKAGyf6tvpX8vf/Bcg5/4KwfGn/sKWv8A6brWv6hJP9W30r+Xv/guR/yli+NP/YWtf/Tda0AU/wBhD/gr/wDGr/gn/Pa2PhnXl8QeDY2+fwvrjPcaeq9/s7bt9q3/AFybb/eRq/Zj9iT/AIOHvgX+1VHZ6X4mvm+FPjC4wn2HX5gun3D+kN98sTf7svlN/s1/OLQyqysrfMrfeFAH9lVlqEOo2sc9vJHNDMqvHJG25XU9CD3FWq/lA/ZN/wCClfxu/YluY1+Hvj7VrDR423Nod639oaRJ/eX7NLuVP96LY3+1X6b/ALKv/B1loupC20/40fD280e4+6+s+Fn+12zf7T2krLKi/wC48v8Au0AfsRRXiP7Nf/BRT4J/tewRj4ffEjwxr17Io/4l32r7NqKf71tLslX/AL5r2xZA1ADqKKKACiiigApvljHTH0p1FAGP4p8C6N43082utaTpusWp/wCWV7apcp+Tg14d8Tf+CTX7N3xaleTWfgz4DaaT70tlpy6dK3/A7fY1fRNFAHwT41/4Nvv2Y/FcrSWOi+MPDe7tpviOcqv0WfzVryjxl/waw/DO/mJ8P/E74gaT/dF5b2V8q/8AfKRGv1NooA/Gbxd/wap63aFm8P8Axp0u5/upqPhl4v8Ax6K4b/0GvPPEX/BsH8cNNDPpvjT4X6sv8Ia4vbVm/wC+rd1/8er93KKAP559c/4N2f2ntIZvs2h+DNVA72niSJd3/f1Erlda/wCCF37VOg7t3wrmugve01zTpd3/AJMV/SDsFGwUAfzK6l/wSN/aY0lm874LeNH2/wDPBLef/wBAlasa7/4Jo/tEWG7zPgj8Tvl/uaDLJ/6Dur+oHyo/7q0vlr6UAfy13X7Afx00/d53wX+Kke3/AKle8/8AiKq3H7EvxptWVZfhF8UE3evhW9/+NV/U/sFJt/3vzoA/lb/4Yz+Mn/RJfid/4Sl//wDGqtQ/sL/G+4ZVT4O/FJ2k+6B4Xvfm/wDIVf1Nbf8Ae/Olx/nNAH8udn/wTt+P1+v7n4J/FR/+5aul/wDQkrUsf+CWn7SGpNiP4I/ERf8Arppvlf8AobLX9PGwU3yh/dWgD+ajSf8AgjF+1FrmPJ+DviKHd3uryyg/9CuK6zSf+CAX7VGrAM/gLSdPDd7vxLZLt/74d6/ot2D0H5UbBQB+Anhr/g2s/aL1wr9suvhroqt97z9cnlZf+/Vu1d74c/4NaPidcsv9sfFLwHYL/F9j067vGH/fXlV+39FAH5E+Gf8Ag1R0mJUbXPjRrFw38aad4chg/JpZn/8AQa9T8H/8GwfwF0eNG1fxH8TNekX7wfVLe1jb8IrdW/8AHq/SOigD458B/wDBBX9lnwLsf/hWMGtzx/8ALXWdWvb7d9UeXZ/47Xvfw3/Y5+E/wgji/wCEX+GvgTw+0I+V7DQbWB/++wm79a9LooAjjiWNVVV2qvAA6U5UCjgU6igAooooAKKKKACikZttZXi7xro/gDQp9V13VtO0XS7Zd095fXSW8EI9WdyFWgDWprMFHNfB/wC1B/wcT/s4fs+JcWmjeIb74m63DuUWnhaHz7fev967cpBt/wBpGf6V+av7Wf8Awcv/ABy+OYu9P8BWuk/CfRJiUWSy/wCJhqxQ+tzKvlo3/XKJW/2qAP3N/aT/AGxvhj+x/wCETrXxJ8aaH4Us2UmFLyf/AEm7P92GBcyyt7Ipr8lP25/+DozV/EMd5oPwC8Ovods2Y/8AhKfEUIkum/2rey+aNP8AZadm/wCuS1+TXjbx1rfxM8V3WueJNa1bxDrd82bjUNTvHurqZv8AaldmZqyqAOg+KHxT8TfGzxxfeJvGHiDVvE/iHUm3XGoandNczyf7O5vuqv8ACi7VX+FVr+hT/g2k/wCUW2g/9jDrP/pY1fzl1/Rp/wAG0n/KLbQf+xh1n/0sagD9AKKKKACiiigAooooAKKKKACiiigAooooAKKKKACiiigAooooAKKKKACiiigAooooAKKKKACiiigAooooAKKKKACiiigAooooAKKKKACiiigAooooAKKKKACiiigAooooAKKKKACiiigAooooAKKKKACiiigAooooAKKKKACiiigAooooAKKKKACiiigAooooAKKKKAGyf6tvpX8vf/Bcj/lLF8af+wta/wDputa/qEk/1bfSv5e/+C5H/KWL40/9ha1/9N1rQB8o0UUUAFFFFAAvyzJIvyyQtuRx96Nv7yt/DX0n+zr/AMFev2jv2XVt7fwz8UvEF5pduu1dL1511iz2/wB1VuN0iL/uOtfNlFAH6+fAH/g7B8QaeIbb4nfCnTdUXhX1DwvqLWsn+032a43K3/f1a+0/gf8A8HEH7L/xkEUd54y1DwLeyYUW/ifS5bRc/wDXZN8H/kSv5sF/iqaPcu35ttAH9gHwy+O/gr406at54P8AF3hnxVaMu/zdJ1SG8XH/AGyZq6zzF9a/jf0XULjw/qSXmn3FxYXkbbluLSVoJVb/AGXTa1fQnwh/4KvftIfBFbdPD/xk8bfZ7f5UttTvF1WBV/u7LpZf/HaAP6nqK/n7+Ff/AAc5/tBeDVWPxFo/w98Zx/xST6fLptw3/A4ZfL/8cr6M+Gv/AAdbaHdLCnjD4O65Yt/HPomtw3i/gkyRN/49QB+vFFfAfw9/4OR/2Z/GkkaahqnjLwozfe/tXw9K6r/wO3Mq17h8P/8AgrV+zZ8TZkXSvjT4CV5OiXuojT3P/AbgIaAPoyiuX8HfGfwj8QkD6D4q8Oa4rfdbT9UguVb/AL4dq6bf7N+VADqKa7qnU4o8xfWgB1FFFABRRRQAUUUUAFFFFABRRRQAUUUUAFFJuFIZFH8QoAdRSbhVbUdVt9JtmmuriG1iXq8zhFX8TQBaoryvxz+2/wDBz4ZRSN4g+Knw80do/vJc+IbVJP8Avjfu/SvEvHv/AAXe/ZZ8BxyZ+KdjrU0f/LHR9NvNQZvoyRbP/HqAPsGivzJ+JH/B0d8FfDsDL4Z8HfEbxRMvRpLW302Bv+BSymT/AMh18+fFD/g6x8baiWXwb8I/DOjj+CTWtXn1BvrsiSFf/HqAP24Lgd6iubuO1geSRljjjXczsdqqPrX83PxX/wCDgb9qT4mRzRw+OtP8J2szf6rw/otvbsv+7LKssn/j1fL/AMWf2m/iR8d52k8bePvGnisyfwarrdxcw/8AfDP5a/8AfNAH9Nnxt/4Kkfs9/s7b18WfF3wTZXUed1nbaguoXit6eTb75P8Ax2vjf47f8HUHwf8ABSy2/gTwb408eXceVWedE0exPod0u+X/AMhV+DaxrDHtRFRfRF21FcSJb7WkdY1bu7baAP0L/aC/4OY/2iPi3FNa+E08K/DPT5Mqr6XZ/wBoX20/9PF1uXd/tLEtfD/xk+Pvjj9ojXG1Lx74y8TeMr3dlZNZ1CW8WP8A3EdvLT/gKrVLwT8I/FvxKkVPDfhPxR4hdvu/2XpFxebv+/SNXqOh/wDBMb9o3xJCsln8CvipJG33Xfw9cQK3/farQB4bRX0LN/wSY/acghEh+BPxKwwz8ul7mH/AVauW8XfsB/HXwDC0mtfBf4qafGv3pJPC920a/wDAlRloA8joqxrmk3Xhe8a11S1utLuF+Vor2B7aT/vl1Vqr/wAO7t60AFf0af8ABtJ/yi20H/sYdZ/9LGr+cuv6NP8Ag2k/5RbaD/2MOs/+ljUAfoBRRRQAUUUUAFFFFABRRRQAUUUUAFFFFABRRRQAUUUUAFFFFABRRRQAUUUUAFFFFABRRRQAUUUUAFFFFABRRRQAUUUUAFFFFABRRRQAUUUUAFFFFABRRRQAUUUUAFFFFABRRRQAUUUUAFFFFABRRRQAUUUUAFFFFABRRRQAUUUUAFFFFABRRRQAUUUUAFFFFABRRRQA2T/Vt9K/l7/4Lkf8pYvjT/2FrX/03Wtf1CSf6tvpX8vf/Bcj/lLF8af+wta/+m61oA+UaKKKACiiigAooooAcv3DUy/eqBfurU8X36AJE+631qwnVahi+5Uy/eoAki7VNGv3ajX7hqZfvUASRdqmHzKFb5l9DUKfdb61Ov3loAktYEtZt8KLC/8AfjXa3/fS12vg/wDaG+IHw/2NoPjzxtou37v2LxBeQKv/AAFZa4uP+Kpo1+7QB9AeGP8AgqX+0d4TZfsfxs+ITLH0W51L7Yv/AJGV69I8N/8ABd39qbw6ir/wsuPUFXtf6DYS7v8AgSwq1fHsXapoz91aAPvbw9/wcZ/tIaQy/aZvh/qu3732jQGj3f8AfqZa7TR/+Dm/4026qt54I+GN5t+8UivYG/8ARzV+bafeqSL7lAH6jaV/wdA+Po1X7Z8KfB8/r5Gs3UX/AKEjV0dh/wAHRWqDH2r4L2L+vkeKXX/0K2r8nk+9UsX9KAP10s/+Doy3YL53wTvB6+X4pT/2a2q5D/wdD6O4/efBfWlb/Z8SwN/7RFfkIq4qVV20Afrz/wARQuif9EZ17/woof8A4zUE3/B0Tpqq2z4K6ozfw7vFES/+29fkf5X0qJl/ioA/WK//AODo1j/x7fBRh/118V//ABNtWFqv/B0T4nb/AI8/g7oMX/XfxHNJ/wCg261+Wsv9aZIv3loA/SnVf+Dnr4pSs32P4a/D+29POvL2f+RSuS8Qf8HLPx81JT9j0H4Y6b7ppd1Oy/8AfdzX5+v1qufv0AfaWvf8HB37T+qFvs/ijwvpat/z6eGrf5f+/u+vP/FX/BZv9qDxZu+0fGHxBaq3aws7Kz/9AhVq+aH+9UEvWgD1Txf+3r8cPHUbJq/xi+J18jdUfxLdRx/98o6rXl/iLxZqvi2Z5NV1XVNVdvvPe3styzf99s1V5elRP96gCotvHF9yONP9xFWmyszN8zVM/Rqil/pQBBL0qJ/vVNIv3lr6T/YE/wCCTvxY/wCCheqRXXhrTV0LwZHL5d14p1VGj09dv3lhC/NdSf7KfKv8TpQB8vSFVVmZtq+pr6p/ZI/4IrftBftix2uoaP4Pk8K+Gbraw1zxQW062kRv44oirTyr/tIm3/ar9r/2F/8AgiP8Ff2Io7PVYdHXxx44t8MfEevxJPLC/rbQf6q39mVTJ/edq+xVjC0AflT+zh/wav8Aw28JQw3XxR8beJPG19tUtZaSF0fT1buuV3zuvv5if7tfbnwU/wCCYH7Pv7PUS/8ACJ/CLwPY3EeNt5caal9efXz7jfJ/49XvlFAFe0sIbC2SGCNYYYxhI4xsVR9BU3lr6U6igBnlR/3Vp2wUtFAGD40+G3h74k6YbHxDoWj69Ztw0Go2MV1E3/AZFIr5X+O3/BBz9l/49i4kn+Glj4T1C4O77d4WnfSJF/7ZRfuG/wCBRtX2NRQB+IP7Un/Bqd4i0GK41D4O/ESz16NdzppHimD7JcY/hVLuEFGb/fiT/er7y/4IWfs4+Nv2VP2CLHwX8QPD9x4b8S6Z4g1Z57OWVJfke6ZkdHjZkdGX5gytX2ZSKu2gBaKKKACiiigAooooAKKKKACiiigAooooAKKKKACiiigAooooAKKKKACiiigAooooAKKKKACiiigAooooAKKKKACiiigAooooAKKKKACiiigAooooAKKKKACiiigAooooAKKKKACiiigAooooAKKKKACiiigAooooAKKKKACiiigAooooAKKKKACiiigAooooAKKKKAGyf6tvpX8vf/Bcj/lLF8af+wta/wDputa/qGr8GP8Ag53/AGG9W+H/AO0TY/HLS7WS48M+OIbfTdZmjT5dP1OBPKiL/wB1Z4ERVb+/EV/iWgD8sqKKKACiiigAooooAcn3FqaL79Qp9xami+/QBMn3FqaL79QxfcqZfvUATRfcqZfvVCv3DU0X36AJl+4ami+/VdPut9asJ1WgCRPut9asJ1Wq8fzbqmjf7tAEyfdqdfvLUEXapo3+7QBNBU0f8NQxdqmi+7QBNF2qaP7gqEdali/pQBOn3qki+5UKtmpVbNAEr7ahl60/zfpTGbNAEZ+4Krn79TSNUUjfeoAil6VXP36sP1qufv0ARy9Kif71Sn7gqufv0ARv0aon+9UsvSon+9QBBIfvVH5bTSIiIztI21URdzMzfKqqv8TbqmhtpLyaOGGOSaaZ1iSONGkkkdm2qqqvzMzNtVVX71fuV/wRc/4ImWv7OVppnxW+LemQ3fxGmC3GjaNOoki8Lqy/LI4+61579Iui/PuagDxf/glX/wAG88nimHT/AIhftAWE1vYyFbjTfBTMY5bgHlX1Bh8yL/07r83/AD1I+aOv2Q8P+HLHwjolrpmk2Vppun2MSwWtpawrFBbxqMKiIuFVR6CtFV20tABRVDV9YtdA0q6vLy5gs7Oziaae4mkEccCKNzO7NwqqvJJr8nP+Chn/AAc5aF8PdSvvCvwD0ux8YajCzRS+K9TV/wCyYW6H7NCpV7rH99mSP+75goA/XDzB/vfSuf1j4seF/D1z5N/4j0Gxm6bLjUYYm/Jmr+VX9oT/AIKJ/HL9qjULibxz8UPGGrW8zbv7Pgv2sdPj9ltrfZF/30rV4pLax3EjPJHHI7feLorM3/fVAH9k+jeJNP8AEdr52nX1nfQ/37edZV/MGr6uGr+Nzwj4w1j4f6pHfeH9W1bQbyFtyT6Zey2cqt/stEytX21+yB/wcK/tCfsyaja2/iHW1+K/hiNgsth4kbdfKn8XlXyr5ob/AK6+av8As0Af0lUV8z/8E+f+Cpnwt/4KNeE5LjwfqUmm+JtPiEuqeGdTZY9SsB93eFB2yw7v+Wse5eRna3y19MUAFFFFABRRRQAUUUUAFFFcP8cf2hvBP7NHgWfxN498UaL4S0KH5Wu9SulgRm/uID8zueyIGZvSgDuKQuB3r8jv2s/+DqXwn4WurnTfg34GvvF1xGSia14gdtO09m9Utx+/kX/f8qvz9+On/Bdn9qH47SzLJ8SrrwjYSMzLZ+FrSLS0jHp5o3Tt/wACloA/pvmuUt4mdmVEXqWO0Cuev/jD4T0d9t34n8O2z9NsupQI3/jz1/Ix44+LvjD4nXj3HiTxb4q8Q3EnzPJqmr3V4zf99u1cw2lwyNua3hZvVolagD+xfR/iZ4d8Qsq2OvaLfM33RbX8Uu7/AL5atvzFav40IbRLVt0cccLL3Rdrf+O13/wz/ao+KPwYukm8I/Ejx54bePoNP8QXUEf/AHxv8tv++aAP68EYMODmnV/N/wDs+/8ABxr+0v8ABWa3h1rXND+JGlw/K1v4h05I7ll/2bm38p93+06vX6Nfsf8A/BzB8Ffjvc2ulfEK11D4S65NhBPqD/bNHkb2u0UGP/trGi/7VAH6TUVmeHPEmn+MNFtdU0q/s9U02+jWa2urSdZoLhD0dHUlWX3FadABRRRQAUUUUAFUda1yz8PadJdX93b2NrCMvPcSrHHH/vM3Aq47bVr+Xv8A4LC/t4+MP21/2v8Axlb6pql4vgrwjrN3o3h/QxKy2drFbytA07RfdaeVkZ2dtzfMqrtVaAP6eNE16y8R6dHeafeWt9azD5J7eUSxt9GXir1fyy/8EoP28fGH7C/7V/hO40TVL7/hEfEGr2ml+IdD81vseoW88qxM/lfdWePfvR1+b5dv3WZa/qYRty0AOooooAKKKKACiiigAooooAKKKKACiiigAooooAKKKKACiiigAooooAKKKKACiiigAooooAKKKKACiiigAooooAKKKKACiiigAooooAKKKKACiiigAooooAKKKKACiiigAooooAKKKKACuV+L3wk8O/Hn4aa54Q8X6PZ694a8RWrWd/YXK7o7iM/qrKcMrL8ysqsuGFdVRQB/Np/wVe/4Ig+Nv2Add1HxV4Vh1Dxl8IZHZ4tURPNvPD6s3EV8qr91furcKuxv49jfe+Fq/sqvbCHULaSGaOOaGZWR0ddyuD1BHcV+ZP8AwUO/4NrvAP7QVxf+KPg5d2Xwz8W3BaeXSmjLeH9QkPJ2xJ81ox/vRbk/6ZfxUAfgXRXrH7Vv7DnxV/Yk8Uf2X8SvBuqeHVkcx2uoFfP0y/8A+uNyn7p/93csn95VryegAooooAcv3DUy/equv8VTRv8AdoAmT7rfWrEX36rxdqmj+4KAJou1TRv92oR1qRfuUAWIu1TRv92q6/fNTxf0oAnT71SRfcqEN91qni/pQBOOtSxf0qBOtSq2aALEbfdapY2qCNqljbNAE8bVMrZqsrVIrZoAtK2aVZP+A1ArYp/m/SgCXzf9qkaTI+WovM2j7tI0maAFZs1GzUM1MZs0AIzYqGX7lOZs1CzYoAbJ89QSN95qlkNQyPQA1+tV36tUzNivsT/giv8A8E5/+G8/2k1vfENm0nw48CvHfa5v/wBXqUzNuhsM/wC3gs//AEyVl/jWgD7A/wCDf/8A4JNLpFjpXx++I2lqb26H2jwVpdyn/HrG33dSlRv42/5Yhvur+8+8ybf13VdtQWVlFY20cMMaQwwqqJGi7VQDoAOwqxQAVT1HUYNJsZrm5mit7e2RpZZZXCRxooyWZj0UDvVyvy9/4OZv28Ln4Ffs6aT8IfDt81r4g+KSyvq0kT7ZLfR4mVZU9vtEjCL/AHEnFAHwz/wWv/4LRat+2/4x1D4dfD7UrjT/AIO6TO0UssBaOTxfKjf66X/p13L+6i/i4d/4VX886csTNXtX7CP7CHjb/goF8drXwP4Mt44dqfatV1W4QtZ6LabtrTy7fvNu+VEX5pG+X5V3MoB4rDG1xcRxxo0kkzbERF3NI391V/ib/ZWvYPCf/BPP49+PNJS/0X4K/FTULGRdyTx+GbxY5F/2dyLur+jT9gj/AIJN/CD/AIJ/+G7X/hF9At9X8WeWFvfFOqwpNqd0/wDFsbGLeP8A6ZxbV9dzfNX04sYWgD+Pv4qfAPx18C7hYfG3gvxd4Pdm2r/bekXFirN/stKiq3/AWrka/sf8UeEdL8a6HcaXrWnWOraXeJsuLO9t0uYLhf7ro6lWX61+Qv8AwV8/4N49Hi8Kav8AEz9n/SW02802N7zVfBlvuaC8iXl5bBeqSry32f7kn8G1vlYA/Hj4W/FLxF8EviFpPizwjrWoeHvEmhzrcWGoWcvly27/APsysvysjblZdysrLX9IX/BG3/grBpv/AAUj+Ds1nrC2ek/FLwnGi67p0XyxXkTcJf26n5vKdvlZf4H+X7rIzfzQtGy/d+Za9w/4Jq/tAeIP2aP26vhj4m8PXE0dy3iC00m8gRvlvrK6njguIHX+JWV93+yyI38NAH9YVFNTpTqACiiigApGbbQzba/E7/gtx/wXmude1DV/g78C9Ykt9Pt2ksvEnjCwmxJdMvyy2di6/djXlXuF+ZvmVNq5kYA+iP8Agqf/AMHBvhP9kS/1LwL8LY9N8d/Ea13W95ctJ5mj+Hpe6ysh/wBInX/ngjKF/jkU/LX4aftEftMeP/2tPiHN4q+IvirVvFWtybtkl4/7qzRv4LeFdscMf+yir/wKuGjh27flq5pumXGqX1va21vNc3N1KsUEESNJLM7NtVEVfmZm/hVfmoAqrDTnjWNd7sqr6n7tfpd+wr/wbYfEz492ln4g+K1/J8LfDsxWVNN8hbjXrpPeJv3dru/6a7pF7otfqp+zP/wRl/Z1/ZYht5dF+HWla9rFuP8AkMeJF/te+J/vK0oKRN/1yRKAP5rPh38A/HHxekVPCfgvxd4nZvu/2Ro11fK3/AokZa9U0v8A4JS/tJ6xGrQ/Az4mYb5v3ujGD/0Nlr+p2y06HTLWO3t4o4YYV2pHGuxEX0AFWGjU/wANAH8p3iD/AIJhftFeF4Hmvvgf8UI44+rR6BPOq/8AfrdXkHjLwDrfw51BrXxDouseH7lW2+VqllLZyf8AfMqrX9iCxhPu8Vk+LvAui/EDRZNN17SdN1rTZh+8tdQtUuoZP95HBU0Afx2tDTWh21/R/wDtU/8ABvX+zz+0Va3Vzofh+b4Y6/NuZL3wwRBb7/8Abs33QFf9xUb/AGq/Iz9vz/giP8ZP2E4bzXJLGPx14Dtdzt4g0OB2+xp/eu7b5nh/3/nT/boA8x/YW/4Kb/Fz/gnp4mjuPA2vNP4dkl33vhnUWafSb7+9+63boZG/56xbW/vbvu1+/n/BNj/grr8NP+CjXhUw6NM/hzx5p8Pm6n4Vv5Q11CO8sD8LcQbv41+Zf41Sv5h2Td8y/N71o+BfHWufCvxppfiTwzq2oaDr+i3C3VhqFhOYrm1lX7roy/8AoP3WXcrbloA/sZor8+P+CMP/AAWn0z9vvQYfAvjqSx0X4waXbl2SNfKtvFECD5rm3X+CVessH8P30+Tcsf6D/eFABRRRQBHJ93/gQ/nX8gv7S/8Aycl8Rv8Asa9W/wDS+ev6+pPu/wDAh/Ov5Bf2l/8Ak5L4jf8AY16t/wCl89AGb8Gv+Sy+Dv8AsYNN/wDSyKv7DIvut/vGv48/g1/yWXwd/wBjBpv/AKWRV/YZF91v940ASUUUUAFFFFABRRRQAUUUUAFFFFABRRRQAUUUUAFFFFABRRRQAUUUUAFFFFABRRRQAUUUUAFFFFABRRRQAUUUUAFFFFABRRRQAUUUUAFFFFABRRRQAUUUUAFFFFABRRRQAUUUUAFFFFABRRSbhQAtFFFAGP4y8EaP8QvDl1o3iDSdN1vSb9PLurK/tUube4X+66OpVh9a/Of9sH/g2V+DPxra61P4a32ofCfXJMutvaL9u0WRv+vZzvi+b/nlIqr/AHa/TCigD+ZP9qn/AIIOftH/ALLb3F1/wh3/AAn2hW+T/anhN21Dj1e22rcp/wB8Mv8AtV8d3lnNpuoTWdzDNbXlu22W3nRklhb+6yN8y/8AAq/svKh68m/aK/Yb+Ef7WliYfiN8PPC/ip9u1bm7slW8hH+xcJtlT/gL0AfySjrUsX9K/dv9of8A4NWfhX41aa7+G/jbxV4Dum3MtnqCrrWnqeyrvKTqv/bVq+H/AI8f8G237SnwgaabQdP8M/EbT4V379D1IQXW3/r3uvK+b/ZV3oA+CY2+ap4v6V13xc/Zt+In7Pt41t468C+LvB8i99X0me1jb/dlZfLb/gLVx8MizKroyunqjbloAnjb7tTR/KahTrUkbZoAsRdKlVs1Ar/NUkb0AWk61IrYqurVIrZoAtK2akVqrxtUqtigCdWxUytmq6t/31UitQBZVs08SVWVv++qlWTH3qAJ1kwPmpVk/wBqoFkxTvN+lAEvmUjSf8CqPI9KPN+lAD2kqNm39Kazf3qazUADNUZO6gndUTNigAZsVEzf99U4tmo2bFAFjQfD9/4u8QWGk6VazahqmqXEVnZ20S7pLiZ3VERf9pmZV/4FX9Pn/BOP9jXTf2Ff2TPDXgO1EMmqwx/bdeu4x/x/ajKA0z/7qthE/wBiNK/IP/g3J/ZDT46ftg3nxC1W183QvhXbrdW+9d0cmqzhkt/+/Uayy/7LeVX75qNooAWiiigBsjbUr+ZX/gvB8a7j43/8FRPiQzSO1j4Slt/C9kjHKxpaxL5uP96eWZq/prf7tfyaft1Xc2rftxfGS5uG3zTeOdaZif4v9PnWgDyNY1jVmb5VUbmP+zX9Ln/BDP8AYtsf2P8A9hHwzJNZxx+LfiBbxeJNem2/PunTdb2+f7sUBRdv94u38Vfzc6Pp8d9qlrbzfLDcTpFIf9lnVW/8dav7BdG06DR9ItrW1VVtbWJIogOioqgD/wAdoAu0UUUAFIy7qWigD8df+CqH/Bul4g+MHx01T4hfAybw3ZweJpTeat4b1CdrFLe7Y5kntpFRk8t2+dom27WLFW2ttWx/wSn/AODdPxD8C/jvofxM+NGpaFNP4TuVvtG8OaRM10jXaf6ue5mZVXajfOsSK25lVmb5drfsFRQAijaKWiigApGbbS180/8ABVX9vOx/4J5fsh6740X7PP4ovT/ZXhmylb5brUJQ2xmHeOJVaV/9mPH8QoA+IP8Ag4f/AOCu9x8M7G9+APwz1ZrfxFqFtt8YavaS7ZNLt5F4sInH3Z5Ubc7D/Voyr95/l/EaGFVVVVVVV+VQP4aveJvE2peOvFOpa3rV/daprGsXUt7e3tw3mS3U0rM8srt/eZmZq1Phj8M9c+MHxA0Xwr4Z0y41jX/EF4lhp9lAv7y4mdvlX/Z/vMzfKqqzN8q0AbX7O/7OvjD9qX4taT4H8C6Lca54i1h9sEEfyxwov355X+7FEn3mdvlX/aZlVv6Gv+CXv/BF7wD/AME+tDtNe1KO08ZfFSeLF1r80H7nTiw+aKxRv9VH/D5v+tk/iZVPlr1X/BKj/gmF4a/4Jw/BKOzVbbVviB4gjSbxLrix/wDHxJ95beHPzLbRZwq/xNudvmbj6uoARV20tFFABRRRQAUUUUAFRzQJcRMrqrIwwwPQipKKAPyb/wCCuf8Awb4aV8StP1T4jfAbS7fR/FEe+61LwlbhYrHWP4me0X7sFz/sfLFJ/sN8zfiHq2j3Oi6nc2d5bXFneWcrwXFvPE0UtvKjbXR0b5lZWVlZW+7tr+x9l3V+WX/BfH/gj1D8d/CeqfGz4Z6T5fjzR4PP8R6Taxf8jJaoOZ0UfeuolH/bVF2/eVMgH4Y+EPF+rfDfxhpmv6BqV5o+uaLdJe2F9Zy+VPZzI25JUP8ACyt/nbX9Kf8AwRx/4Kh6d/wUf+ABfVXs7H4meExFa+JdPi+RZ93+qvYV/wCeMuG4/wCWciun91m/mekVWXcrblb5sivWP2Ff2x/EP7Bn7T/h34jeHmmmGmy+Rqmnqdq6tp8jL9otW/3lXcjfwyRo38NAH9aVFcv8H/ilofxv+GHh/wAYeG72PUtB8TWMOp6fcr/y2glQOp9jhuR/C2RXUUARyfd/4EP51/IJ+0t/ycl8R/8Asa9W/wDS+ev6+5Pu/wDAh/Ov5Cf2ko/+MkviL/2Nerf+l89AGb8E4f8Ai83g3/sYNN/9LIq/sIi+63+8a/kC+CcP/F5PBv8A2MGm/wDpZFX9fsX3W/3jQBJRRRQAUUUUAFFFFABRRRQAUUUUAFFFFABRRRQAUUUUAFFFFABRRRQAUUUUAFFFFABRRRQAUUUUAFFFFABRRRQAUUUUAFFFFABRRRQAUUUUAFFFFABRRRQAUUUUAFFFFABRRRQAUUUUANf5Yz9K/Hf4+/8ABenxt+wV/wAFRvit4G8WaafHHwts9Xt1t7SPZBqeho9lbu/2aXhZY9zs3lS/xNxIn3a/YiT/AFbfSv5e/wDguR/yli+NP/YWtf8A03WtAH9EX7Iv7d3wt/bl8Ef258NvFlhriworXdgT5Oo6aT/DPbv+8j/3iu1v4S1eyBs1/HJ8PviL4g+EnjKx8ReFdc1bw3r+mnfa6jpt09rc27ezoytt/wBn7rfxLX6d/sS/8HQvjr4aiz0b42eH08faVHtRtd0gJZ6xGP70kPywXH/AfKb/AHqAP3gorwP9kr/gpb8Fv23rCM/D7x1pOpaoyBpNFuW+x6pB67raXEh2/wB5Ny/7Ve9q4agBaKKKACmuobrTqKAKupaZb6rZSW9zDDcW8y7JIZUDxyL6FTxXz58Zv+CTf7OXx7uJJvEnwf8ABMl1J9670+y/su5Y/wB4yWxjZj9a+jaKAPzR+K3/AAa7/AnxYJJPC/iH4heDbhjlVjv4tStl/wCAXCM//kSvnP4l/wDBqZ420uVm8G/Fvwvq0f3kj1rSJ7CQf8DieZf/AB2v26ooA/nF+IX/AAbyftSeA/ONr4P0HxRDD/y00bX7dmb/AHUn8pv/AB2vB/iH/wAE+fjr8I1d/EXwf+I2mwx/en/sGe5g/wC/sKvH/wCPV/VjsFJ5a7fT6UAfx9app9x4euGh1C3uNPkX5Wju4mgZf+Auq0lvOk33HV1/2G3V/Xl4i8E6T4xtPJ1bTNP1OHGPLvLVJ1/J1NeXeM/+CeHwH+Ig/wCJx8HfhreO33pG8OWqSN/wJUDUAfyyLuX7ytUitX9I3iX/AIIX/sr+KFdn+Eul6fI38Wnaje2e36LHMF/8drznxD/wbbfs2607Na2vjzR93az8RvJj/v8AJJQB+AStipVbFfuB4i/4Ndfg/eMf7L8f/EzTv7ollsrlV/8AJda4/VP+DVvw7MWNj8aPEVv/AHRc+Hreb/0GVKAPxxWSpFkr9ZNU/wCDV3VELfYfjXYyf9fHhZ1/9BuqwL7/AINbfH0Bb7L8WvB83/XXRbqP/wBBlagD8u1k/wCA0vmV+mFx/wAGvPxXXd5PxL+Hcn93fa3sf/srVXn/AODYD4yIvyfED4Ys3v8Ab1/9otQB+bHm/wC5SNJ/tV+kq/8ABr/8aN3zeP8A4X7f+ul//wDGalT/AINffi8D83xE+Gqj1WK9b/2lQB+au+oy396v07tf+DXX4nSbftHxR8Bx/wDXPTbyT/4mtnTf+DWPxW7f6Z8ZPDsP/XDw5PJ/6FcLQB+VDNimFs1+v2lf8GrELKPt/wAb7r6WvhRV/wDQ7lq6jQ/+DWPwDAw/tL4r+OLxe4ttOsrbd/30r0AfiqTuqJm3fxbV9a/ebQP+DZD4A6ci/b9e+KGquv3t+r28Ct/36t1/nXe+GP8Ag3p/Zb8PrtuvBOsa38uD/aHiO/dW+qpKi0AaH/BB/wDZrH7O/wDwTr8H3Fzbtb6z493+Kb/em18XO37Ov/AbZIfzNfZ1Z/hzw/Z+FdBsdL0+CO0sdNt0tbWCPhIYkUKiL/sqqgVoUAFFFFADZPuGv5df+CtnwruPhH/wUr+M2lXELQrdeJZtXgXb96G8VbpGX/v83/fNf1GV+Mv/AAc/fsdXFt4n8I/HDSbXdZ3UKeGfELRr/q5VZns5m/3laWLd/eWJf4qAPyJW3aSNlVtjMuFP93/ar+qD/gnh+0tY/tafsa/D7xtazrJdalpUUOpIG3NBfQL5Vyh9MSo34FfWv5a4Yd1fcf8AwRj/AOCpkn7APxKvPDviqS6ufhb4suEfUBGGlfQ7rbtF7Ei/My7VVZUX5mVVZdzJtYA/ohorG8D+OdH+JXhPT9e0HVLHWtF1aBbi0vrOZZoLmNujI68MK2aACiiigAooooAKKKKAEZtor+c//g4y/bNl/aW/bsuvBen3TSeFfhGjaNAiN+7m1J9rXsv+8rKkP/bBv71fvl+1D8bLP9nH9nPxz49vmj+z+D9Du9WKv92RoomdE/4Eyhf+BV/IzrXiC/8AF2vX+rarcNc6pq1xLe3s7tuaaaV2eVm/3mZqAIoY91ft1/wbQ/8ABO6Hwj4Cm/aA8T2IbWfESy2PhNJVH+iWOdk12P8AanZSit/zyQ/89a/If9lP4A3/AO1L+0b4J+Hems0d14w1eHTWlC7vs8TNuml/4BEsr/8AAa/rN+HXgXS/hf4F0fw5odrHY6LoNlDp9jbp92GGJAiL/wB8qKANuiiigAooooAKKKKACiiigAooooAKRl3UtFAH86n/AAcBf8E74f2Nv2oY/F3hixW18A/E55r21gij2xaXqS/NdWqhfuo+7zkX/adV+VK/P6YV/Ul/wVw/ZHj/AGz/ANg3xx4WhtxNr+n2ra7oB25ZdQtQ0iKv/XVd8X+7K1fy4yfvFVlVl3LuwfvLQB+23/BrP+2dJ4y+GHiz4H6xdNLd+DpP7e8Pq7bj9hnfbcQr/sxXDB/+3n2r9cq/lf8A+CRv7RTfsu/8FF/hb4kkuPs+l3mrJoOqMx+VrS9/0d8/7KyPE/8A2zr+p5OlADZPu/8AAh/Ov5Ef2kI8/tJfEX/sa9W/9L56/ruk+7/wIfzr+Rn9o6P/AIyP+In/AGNWrf8ApfPQBR+CsP8AxeLwf/2MGm/+lkVf16x/db6mv5EvgrH/AMXi8H/9h7T/AP0sir+u2P7rfU0APooooAKKKKACiiigAooooAKKKKACiiigAooooAKKKKACiiigAooooAKKKKACiiigAooooAKKKKACiiigAooooAKKKKACiiigAooooAKKKKACiiigAooooAKKKKACiiigAooooAKKKKAGyf6tvpX8vf8AwXI/5SxfGn/sLWv/AKbrWv6hJP8AVt9K/l7/AOC5H/KWL40/9ha1/wDTda0AfKNFFFAD7W4ksbyG4t5ZLe5t33xSxu0ckLf3lZfmVv8AaWvsf9lX/gvT+0h+y2Lex/4S5fH2g2+0DTfFsbagyr6Jcqy3K/8AAnZf9mvjWigD94v2Zv8Ag6f+Fvjtbez+KHg/xJ8Pr5tqve2H/E403d3ZtgWdF/7ZN/vV99/s/wD7b3wj/aqso5vh78RPCfippFz9ms79Ptkf+/btiVP+BKK/kkjXFWrOZ7O8juYXkhuYW3RTRt5csbf7Lr8y/wDAaAP7JlkDU6v5cfgF/wAFgf2kf2dIoYdB+K3iLUNPhXZHYa+y6zbbfRftCtIq/wC6619ofBH/AIOqfG2jeXB8Q/hf4d8QRqoV7rw/fy6bP/veVP5qN/38WgD9vqK/Pv4N/wDByZ+zj8SDDHr154u8BXLLhxrGjPNAp/662plG33YLX1R8If27vgz8eYoz4R+KHgXXpJvu29vrMP2n/vyzCQf980AeuUUxZVkXcrZXrmnK4foaAFooooAKKKKACiiigAooooAKKKKACiiigAooooAKKKKACiiigAooooAKKKKACiiigArjfjz8FfDv7Rvwg8ReBvFll/aHh7xNZvZXsOdrbW6Oh/hdGCurfwsoNdlRQB/Lh+3h+wt4s/YE+Pd94M8SRyXVhIXudD1cRbYNatN3yyj+7Ivyq6f8s2/2WVm8ehhr+pj9rj9jnwJ+2r8JLrwf480n+0LKRvNtLmFvLvNLuMYWe3l6pIuf91h8rKy8V+Gn7cf/AARP+Ln7HWoXmpaZp118QfAsbM8Ws6RbGS4tYv8Ap7tl3SRMvd03p7r92gDx39lL9vL4t/sW3zP8PPGN9pNjcP5txpU6rdaZcH+ItbvuVW/202t/tV9n+C/+Dm/4raXDCmv/AA78B600a7XktLi60+ST8GaVVr82bePzN235trbWx/C1TNb/AC0Afs/8Gv8Ag5t+G3iW5jt/HHgPxZ4PaTCm5sZYtXto/wDaYL5Uu3/djavu39nv9rr4a/tXeHG1T4e+M9D8UW8a5mjtJ/8ASLX/AK6wtiWL/garX8tk0fFXPA/xA174UeL7PxD4Y1rVPD2uae2+31DTrhra5hb/AGXX+H/Zb5W/iWgD+tGivyr/AOCWv/Bfu3+K+s6X8P8A45T2OleIbplttN8VoBbWepSH5Vju0+7BKx6Ou2Jj2Q7d36pq26gBaKKKAPgf/g5I+Kcvw8/4Jc+JNOhbZJ401nTNCz/EyNP9okX8Y7dh/wACr+cuH5q/cr/g7E8SvZfsx/CnSV/1eoeLpruRf73kWEoH/o2vw1h6rQB+lf8AwbAfBWPx5+3dr3i65jZ4fAPhmWW3fH3bq8lWBP8AyEtx/wB9V/QDX5B/8GnHhVLf4d/GrW2RfMutW0zTlb2it5ZWH/fU1fr5QAUUUUAFFFFABRRRQAUUUUAFFFFABRRRQA2Tp/u81/KH/wAFGfgpF+zv+3T8WPB1rD5Fjo/iS7axjxt22s7faYR/wGOZV/4DX9Xr/dr+cb/g478Lp4c/4KmeJ7pFVP7c0HSb9sfxN5DQM3/kFaAPgmS4msW+0W7slxb/AL2Bx95XX5lb/vpVr+vr9nH4kf8AC5P2ffAvi7Kv/wAJR4fsdWyPWe3jlP6tX8hEn+sH/Aa/qL/4IveI5PFf/BLT4HXcjM7x+F7e1yf+mDPB/wCyUAfT0n3f+BD+dfyO/tGLj9o74if9jVq3/pbPX9cUn3f+BD+dfyQftGL/AMZHfET/ALGrVv8A0tnoAg+Cq/8AF4vB/wD2HtP/APSyKv654/ut9TX8jXwVX/i8Hg//ALD2n/8ApVFX9csf3W+poAfRRRQAUUUUAFFFFABRRRQAUUUUAFFFFABRRRQAUUUUAFFFFABRRRQAUUUUAFFFFABRRRQAUUUUAFFFFABRRRQAUUUUAFFFFABRRRQAUUUUAFFFFABRRRQAUUUUAFFFFABRRRQAUUUUANk/1bfSv5e/+C5H/KWL40/9ha1/9N1rX9Qkn+rb6V/L3/wXI/5SxfGn/sLWv/putaAPlGiiigAooooAfF/7LU8fy7f9moY+jVYjX71AE0K/dqxCv3ahjX71WYv6UATRfdWpBClwys6Ru38JK7ttMi7VYTr/AMBoA9A+Fv7UfxM+DDqfCPxD8ceGlX7qadrlxBF/3wr+X/47X0R8OP8Aguv+1B8OYUj/AOFjL4gt48fu9c0i1vN31dUST/x6vj6Nf/HanjXNAH6afD7/AIOfPi1oyxr4k+H/AIA15I/vvZy3WnSt/wCPSr/47Xt3gf8A4OkPCV80a+JPhH4q035fnfTNXt75f++ZVgavxljX7tWI1xQB++ng3/g42/Zz8TFVvpvHXh0t977d4feVV/G3eWvUvC//AAWe/Zj8WhFt/i74dtXk/g1CK4sWX6+dGtfzfxrU8e5P4qAP6h/C/wC3J8GPGyI2k/Fj4c35k6JF4jtN/wD3zv3V3uieP9D8Txq2m6xpeoq3Q213HL/6C1fyeNapN9+ONvqu6pLeNbNt0P8Ao7esf7tv/HaAP61t3+9+VLn/ADiv5RtH+K3izw1t/s3xV4o09l+79m1m6i/9Beuq0f8Abd+NHhvb9g+LnxOtVXsnia9+X/vqWgD+o7evrR5o/vL+dfzIWP8AwU9/aM0n/U/Gz4jNt/566q0//oatWvZ/8FhP2nNM/wBX8ZvFT7f+e0VnN/6FDQB/SzvHqKTzF9a/m4g/4Ld/tTWP3Pi1qT8Y/eaPp0n/ALb1Ov8AwXe/art4lVfikze7+H9NZv8A0noA/pB3Ck8xfWv5vG/4L0/tXL/zVFf/AAntN/8AkeqV5/wXb/auuCW/4WtcJu4/d6Fpq/8AtvQB/SjvHqKb5sf95a/mX1D/AILb/tVX/wB74ya8n8P7rTtOj/8AQbeuc1T/AIK+ftPaov7344ePF3f88p4IP/QIloA/qMDg0GQL/e/Kv5Tda/4KYftEa4u25+OXxWdW+8E8R3ES/wDjjLXD+Iv2sPip4q3f2p8TviNqO7qLjxRfyf8AtWgD+uS8vobOEyXEkcMa/wAbsFH61k6N8RdB8S61Np+n65o9/f26ebLbW97HNNEmdu5kU7lXJxnFfx8a14o1TXmZr/VNUv2b7xubyWf/ANDZq/Rn/g1e1630H/goZ4qstkMb6x4Fu0XaoVmaK9s3/wDQd1AH9BlFFFABRRRQAUUUUAFIVD0tFAHinxx/4J3/AAR/aOvmuvGXwz8K6tqEvMl8tp9lvJP96aHZI34tXz940/4N4/2dvE0cn2Cz8ZeHHkztaw115RH/AMBuBKtfdlFAH4r/ALVH/Btp408EaZcap8KfFdr42hhDP/Y+qxJp+oMv92OZT5Ejf73lV+anjzwRrPw28V6hoHiDSdQ0PWtMl8m8sb6EwXFq/o6N8y/+zfw1/WnXyn/wU8/4JfeE/wDgoP8ADKY+Xa6H8RdIt2/sLxAE+ZW5YWtzt+aS3Zv+BRk7k/iVgD+bW42lGVlVlb7wP8Vfsj/wQE/4Kw3XxFNn8B/iRq0txrVnCR4Q1a6kLSahCg3Gwlc/elRFLRFvmaNWXqg3fkN8UPh9rfwh8fa14X8TafcaT4g8P3j2F/Zz/wCst5Ub5l3fxL/ErfdZWVl+Vqx/DPi7VPAXirTdc0W+uNL1jRbqK9sLyA7ZbWaJ1dHX/aVlVqAP69VbcKWvEf8Agnp+1xZ/tu/sjeDviHAsMN7qtr5Oq20bcWeoRHy7iL6eYGK/7LLXt1AH5Df8HaNrI3wd+C8y7vLj8Q6ihH8O5rNWH/oJr8TIelfvf/wdT+CDrX7Cvg3XEG5vD/jW3V/ZLi0uov8A0LZX4IW7UAfuV/waiXMbfs9/FqFW/eR+KrV2H+y1gm3/ANBav1ir8V/+DTv4kR2vi34z+D2b99eWula3Cn+zG88Ep/8AH4q/aigAooooAKKKKACiiigAooooAKKKKACiiigAr+eD/g5lv47v/gpg0abd1r4P0pHx/eaS6b/0Flr+h522oTX8zf8AwXm+I8PxJ/4Ko/FCW3fdb6G9loa/71tZxK6/9/XegD44m/1i/wC8tf06f8EKrY2n/BJv4Jq33m0aV/8AgLXlww/nX8w9xMsIZ2+7H8zf8Br+rT/glz4Bk+GH/BOr4J6LIuya18GaY8q/3Xlt1lb/AMeegD3iT7v/AAIfzr+R/wDaN/5OM+In/Y1at/6Wz1/XBJ93/gQ/nX8j/wC0Y3/GSHxE/wCxq1b/ANLZ6AI/gx/yWDwf/wBh7T//AEqir+uWP7rfU1/Iz8FW/wCLweD/APsPaf8A+lkVf1zR/db6mgB9FFFABRRRQAUUUUAFFFFABRRRQAUUUUAFFFFABRRRQAUUUUAFFFFABRRRQAUUUUAFFFFABRRRQAUUUUAFFFFABRRRQAUUUUAFFFFABRRRQAUUUUAFFFFABRRRQAUUUUAFFFFABRRRQA2T/Vt9K/l7/wCC5H/KWL40/wDYWtf/AE3Wtf1CSf6tvpX8wn/BdvR7nRf+CsnxiS5haFri9srqLP8Ay0ik061w3/oVAHyRRRRQAUfxrRR/GtAE0fQf71Txf+zVBB1X/eqxH0H+9QBPF/7NU6f1qCL/ANmqxF/SgCePq3+9VlOrfWq0f9asp1b60ATx9GqxH/FVePo1Wo+rUATRr96rMX9Kgj/iqaPo1AFiNamjFQx/xVYjb71AE0cdOaP/AIFSRtins1AFeRcVBIuKsy96rydFoAryL92q8i/dq1J/DVWTqv8AvUAV5Oi1A/VfrU7/ANagl/8AZqAK0n9arv0/4FVqSq83zbvrQBWl/wDZqgm+Xd/vVPL91vrUEvf60AV5+rf71V5+rf71WJ+rf71V5+rf71AFeXv9a+yv+Df34ix/Dv8A4KtfDX7RJ5dv4gi1DQ3/ANpp7SVkX/v5ElfGsvf612X7Nvxem/Z//aH8B+OoW2v4P8QWOrt/tJBOjuv/AAKNXX/gVAH9f6nKilqppOpW+s6bb3drNHPb3SLNBIv3ZEYZUj/gJq3QAUUUUAFFFFABRRRQAUUUUAFFFFAH44/8HOn7H9rpVz4T+N2k2yxSahKPDXiMov8Arn2M9nOf9raksTN/1yHavyAuJK/pV/4Lm+DLfxn/AMEs/i0txGrvpenw6tAx/wCWclvcxSgj8FYf8Cr+aS6l2yMtAH7C/wDBqx8fZpJPir8L7iaR7eL7L4p06PPyx7v9Fucf982pr9jq/nl/4NpPFE2jf8FMVs42ZY9Y8I6nbyqP4lR7aUf+PJX9DVAHyh/wW2+CMnx7/wCCYPxY0u1t/tOoaTpQ1+zA+9vsZUumx/vRxOv/AAKv5gIZFb5lbcrfdP8Aer+yDW9Gtdf0i6sby3juLO8ieCaKQZWaNxtdT/vKSPxr+Sv9s79nC9/ZC/as8efDa9SRf+EV1eW1s3ddv2i0b57aUf7LQPE3/fVAH0J/wQW/aMj/AGd/+Clfglry4+zaV42SfwpeEttXN1ta3Lf9vMUK/wDAq/pdVtwr+ODR9UudH1G3vLOeS1vLOVLi3njba8MqMrI6/wC0rKrf8Br+qL/gmn+2VZ/t1/se+E/H8LQjVriD7Br1tGf+PPU4MJcJt/hVmxIv+xKlAHv1FFFABRRRQAUUUUAFFFI/3aAPBP22v+CjPwv/AGA/D9jdePtYuBqGqhjp+j6dD9q1K9VfvOsWVCxr/fkZVzxuzXk/7JH/AAXa+Bv7WvxIs/B9rd+IPCHiLU5fI06HxFZpBDqMp+7FFNFLJH5jfwo7KzdF3NX5K/8ABdvXtd1b/gqD8SI9cabbp/2C101HPyR2X2OJ4tn+y0jyt/vM1fHjTMrKyllZW3KQdrK396gD+wBW3UtflL/wRN/4LbD4tnSfg/8AGHVlXxaoW18OeIrt9q66PupbXLt/y9dkf/lr0P7z/WfqyrbqAMP4j+PdN+Fnw/1vxNrFwtrpPh2wn1K9lP8AyzhhRpHP/fKmv5GvjR8UL343fFrxR4z1RmbUPF2sXes3Gf4XuZ2l2/8AAd23/gNfuZ/wcu/ttw/Bn9l2z+Eek3Sr4k+KB3X6ofntdHicGUn+758qpEv95RN/dr8C5pOWoA3PhL8Mr743fFrwv4M01Gkv/F2r2mjQIF+bdczpF/46rs3/AAGv6/fDPh+18K6BY6XZReTZ6bbpawL/AHUjUIo/75UV/PJ/wbbfssv8eP8AgoHb+MLq28zQ/hTYPq7u67o2vp1aC0T/AHl3TS/9slr+ipRsUCgBsn3f+BD+dfyN/tHN/wAZIfET/satW/8AS2ev65JPu/8AAh/Ov5Ff2jpNv7SHxF/7GrVv/S+egA+Csn/F4vB//Ye0/wD9LIq/rrj+631NfyHfBWT/AIvF4P8A+w9pv/pZFX9eMf3W+poAfRRRQAUUUUAFFFFABRRRQAUUUUAFFFFABRRRQAUUUUAFFFFABRRRQAUUUUAFFFFABRRRQAUUUUAFFFFABRRRQAUUUUAFFFFABRRRQAUUUUAFFFFABRRRQAUUUUAFFFFABRRRQAUUUUAFfk9/wcg/8EvNT+O3hi1+OngPTZtQ8SeE7H7H4m062j3z6hpybnS6RF+Z5Lfc+5fvNE3+xtb9YaRl3UAfxlqyyKrKVZW+ZSP4qWv3I/4Kzf8ABuxafGLVdW+I3wFgsdF8UXLPc6p4SdhbWGrSN8zS2j/dt52bko37qQ94znd+J/j74f698KfGuoeHfE+i6p4e8QaTL5V7p2pW7W1zat/to3zf7rfdb+HdQBj0UUUASJ0/4FViP+tVY/4qtRdqALUf8VTR9GqtHz/3zViNv/HloAsx/wAVWI+N3/fVVY2xViN/u0AW4v6VPG9VY2+7U8bf+O0AW06/8BqeNsVUjapo2xQBcjbFTRtVWM1MslAFpZKc0n+zVZZP+BUrSf7P50ASSSVDI2KGkqKSSgBkhqGR/wDx2nyNmoZGoAikaq8jfdqaRt3/AAKq8j/eoAhkb7tV5Oi1NI33qgkbNAEUn8NVpf8A2ap5D/6DVeXvQBXfp/wKoJf/AGap5Oi1Xk52/wDfVAEEv/s1MZVkVlZdytwwqSTqtNoA/p4/4IcftNL+1B/wTY+HmoT3H2jWfCtqfC2q5+8s9liJCf8Afg8mT/tpX15X4I/8GvX7Yq/Cz9pfxF8I9WuhHpfxHt/t+lB2+VdTtUO5B/tS227/AHjbCv3tVtwoAWiiigAor5Y/4KJ/8FbPhX/wTftrGz8WzalrXizWITcWPh7R0SW8eHO3z5S7KkMW4MoZ2+Yhtqttbb5R+xH/AMHDPwc/bF+Klj4JvtN8RfD7xFrUq2+lrrRgksr+ZvuQrcROwSVv4VcLub5VZmwtAH39RSK26loAKKKKACiiigD5B/4Ls+OLbwR/wSu+LDzSKsuq2NvpFuD/AMtJLm6hjx/3ySf+A1/NDcXG52av2B/4Ok/2ybW9Pg34G6TdrNcWs48UeIVjb/U/I0dnAf8AabfLLt9FibvX45TTUAfof/wbKeGJPEX/AAUsmvkVmj0PwbqVw5/u+ZLaxL/6HX9DNfjT/wAGn/wHmWz+LXxQuoZFhuJLTwtp02Plk2brq6x/wJ7Zf+A1+y1ABX45/wDB0T+wfLq+iaD8f/D9lvk0dItA8VrEnS3Z/wDRLpv9yR2hZv7ssX92v2MrnPil8ONE+L/w71vwt4k0+31TQfEVlLp2o2c67o7iCVCjqf8AgLde3WgD+PaGSvuH/gh//wAFMx+wF+0XJpfiS8aL4Y+PHitdbL/Muk3C/LDqAH91d2yX/Ybd/AteL/8ABSX9grxB/wAE7P2ntV8Ear9ovNDuN174c1d1+XVtPZvkLH/nqn3JV/hZd33XWvCIZKAP7HtO1GDVrGG4tpobi3uEWWKWNw8ciMMhlYdVI71cr8Mf+CGX/BbmH4HW+lfBn4wan5fg7ctv4a8RXMny6CW6Wdyzf8uu77kv/LL7rfu9rJ+49pcR3kCyRsskcihkZW3Ky9iKAJ6KKKACiiigAooooA+I/wDgr7/wSZ0n/goN4EXxD4ea20f4q+HbVotNvZDsg1aBSzfYrluy7i2yTrGzHqrMtfzz/ETwLrfwr8bap4b8SaVeaJr2h3L2d/YXieXPayr95WX/AMe3fdZWVl3K1f16V8N/8Fff+CQWi/8ABQXwRJ4k8MrZaL8WNDt9thft+7g1mJeRZ3R9P7kv3o2PdGZaAP50WmaNlYMysrblIbayt/er9hv+CW//AAcP6R4d+DOpeEv2gNUvG1fwjpkt1o3iBUaefxFFEnFnNt/5fPuqjt8sv8TK67pPyI+IngXW/hT441Xwz4k0u+0TxBody9nf2F4nlz2sq/eVl/8AHt33WVlZdysrVgTTbaAPTv20f2tPEX7bP7R3iT4jeJm8q+1yfba2aPui0u0T5be1T/ZRPvN/EzO38VeRzSf7zfRdzVLNJX6M/wDBvV/wTAm/as+OMPxa8X6fn4d/D69V9Pini3Q69q0e1kTDdYrdsO/8LSbE/wCelAH6j/8ABD39hCT9hn9iDSbXWrT7L458bOviHxCrrtktZHRVhtT/ANcYdisP+ejS+tfZdIq7aWgCOT7v/Ah/Ov5Dv2kJP+MkviL/ANjXq3/pfPX9eMn3f+BD+dfyD/tKSbf2lPiL/wBjXq3/AKXz0AHwTk/4vF4P/wCxg03/ANLIq/r4i+63+8a/j9+Cc3/F5PBv/Ywab/6WRV/YFF91v940ASUUUUAFFFFABRRRQAUUUUAFFFFABRRRQAUUUUAFFFFABRRRQAUUUUAFFFFABRRRQAUUUUAFFFFABRRRQAUUUUAFFFFABRRRQAUUUUAFFFFABRRRQAUUUUAFFFFABRRRQAUUUUAFFFFABRRRQAV4X+2d/wAE6vhL+3t4RXTfiJ4Xt9QvLWMpYazan7Nqum/9cbhfm2/7Dbo2/iVq90ooA/ny/bf/AODaT4t/ASW81j4V3S/FfwxHlxZoqWmvWqf3Whz5dx/vRMrN/wA8q/OXxR4X1TwT4iutH1vTdQ0fVrF9l1YX9u9tc27f3XidVZf+BLX9kzLuryj9pr9iT4UftiaEun/EnwH4f8VRxrthuLm32Xlr/wBcrhNssf8AwF1oA/kmhb7tTwt92v2i/an/AODVDSNTa61D4M/EK60eRuU0bxShu7b/AHUu4gsqL/vpL/vV+dn7Sn/BI79of9k/7RP4o+GeuXmk2/zNq+hJ/a1jt/vM8O6RF/66olAHzxG23/gNWI2/8dqrG26R03bmj+Vx/Erf7X92po2xQBajap42xVSNuf8AdqxG9AFqNsVYjNVY2qaNs0AWo3qaOSqsbVNHJQBaWSpFk/4DVVZP/wBVSLJ+FAFnzfrTt/8AstVbzP8AIp3mf7LUATNJUTSf981E8nH8K0jSYoAWSSoZGoaSoWkoASRqhkbNLI1QyNmgBsjVXkepJGqCRqAIpGqCRqlkbFQyNQBDI33qryP96ppW2mq8jUARnrRRRQBtfDX4ja18IPiJoPizw7eNYeIPDN/DqmnXA/5Y3ETq6N/u7l+Zf4lZq/q9/Yd/ax0P9tz9l/wn8SNBKRw+ILRTd2ok3Np14nyXFu/+0koZf9pdrfxV/JRX6If8G9n/AAUvj/Y8/aFk+HPi3UPJ+HfxKuo4o5ppdsWjar8qQ3B3fdjlXbE5/veU33VagD+iSmyfcbH3sUqtupaAP5ff+C6H9vf8PWvjB/wkP2j7R/aNr9g87/nx+xwfZ9n+xt3f8C3f7VfKNreSWcySRySQyxsrxyRsytGytuVlZfusrfNur+i7/guh/wAElf8Ahvz4W2/jHwXbwxfFjwbbOlmrERr4gst29rJ2/hdWy0Tt8qszK3yvuX+dbWNHvPDusXWn6hZ3VhqGnzvb3VtcxNFPayodro6N8ysrLtZW+7QB/QX/AMERf+C0Wm/tk+C9P+G3xG1WCx+Lujw+Tb3Fwyxx+LoEX/XxdvtSr/rYv4vvp8rMqfo8rBhxX8aen6hcaPqFvdWdxcWt1ayrPBPA7RywurbldGX5lZW+ZWX5lr9LP2JP+Dmn4ofArSbXQfipo0fxV0a1CxJqguRZ65Gnbe+GiuNv951R2/idqAP6AqK/Pf4bf8HMH7MPjS0RtW1Xxl4QuGX54dU8PTy7W/37XzVNafjL/g5C/ZU8MaaZbPxd4k8QS4yINN8M3vmN/wACmSNPzagD71r5N/4Kk/8ABVPwX/wTd+Fks1zJZ658RNYt3/4R/wANpL88zfdFxcbfmitlbq33nxsTc33fzs/bD/4On/E3jLTLvR/gn4L/AOETSZWRfEHiFkur6Mf3orRN0SN/tO8v+5X5V/ET4leIfi7421LxJ4o1rUvEGv6xL597qOoXDT3N0/8AeZ2/75VfuqvyqqrQBd+L3xe8QfHP4ma54y8ValNrHiLxJePf6jeSfK00r/3V/hVV2qqr8qqqqv3axvDfh/UvG3iTT9H0exuNS1bVrqKysrOBd0t1NK6pFEi/3mZlX/gVZzMqqzM3yr82T91a/az/AIN4P+CQF94LutO/aC+J2kyWuoTQl/Bej3cW2W0RxtOpSofuu6MViVvmVWZ+rJtAP0T/AOCbv7H1t+wx+xv4L+HSeTNqWl2f2jWblB8t1qM7ebcyA918xiq/7KLXu9Iq7aWgAooooA+d/wDgpJ/wT38Kf8FGf2e7rwd4g26drViWvPD2tJHvn0a9xtVx/eif7skf8ansyqy/zJ/tLfs0+M/2QvjRrHgHx5pMmk+INHk+YfegvIm+5cQv/wAtYHX5lb/eVtrKyr/XpXzb/wAFGv8Agmf4B/4KQfCb+xPFEL6b4j0tXk0HxHaRq15pErdV/wCmkLYG+JvlbttYKygH8s8c1foF/wAEs/8Agu/4z/Ydt7DwZ42hvvHXwvhZYoLfzQ2qeH0/6dXdtssS/wDPu7Lt/gZPut8v/tu/sD/Er/gn58Um8M+P9HaGG4d/7J1m1Vn0zWol/jt5f72370TbZE/iXbtZvG45qAP62P2YP2xvhv8Atk+BY/EHw48V6X4ksdq/aIopNl3Ys38FxbtiSJvZ1HtmvVA2a/j3+GnxY8SfBrxja+IPCPiDWPDOvWf+p1DS7x7W4jX+7vRl3L/st8v+zX6Cfsz/APBzd8bPhPBb2XjzR/DfxO0+LarXMo/srU2Vf+msKtE7fWL/AIFQB/QJRX5j/C7/AIOlPgj4ntEXxR4T+InhO6b7/l2kGp26f8DilD/+Q69Z0v8A4OIf2UdSthJJ4+1SzP8AcuPDWoq3/jsLUAfb9FfCfij/AIOMv2WNCtS9v4x1/VpP+edl4Zv2Y/8AfcaL/wCPV4d8Yv8Ag6u+HOhRSL4E+GnjTxJPjCS6xcW+kW27+98rTPt/4CKAP1cZwtfLv7ev/BWr4Q/8E/tEnh8S60uteMPL3WvhfSZEn1KY/wALSDO23j/25dv+yG+7X4uftV/8HBf7RH7Strcafp+uWPw00O4Gw2nhdGiupB/t3rs0v/fryq+IdQ1KbULya5uJpri5unaWWWV2kkmdvvMzN8zN/tNQB7Z+3/8At1eJP+Cgv7QV14+8SaZoeiy/Z1sLKy06BVW1tUZmRJZtvmXEnLfO/wDuqqL8teGSSUkk1fVH7CH/AARv+Mv/AAUB8Fat4m8M2FnoPhixs5ZNO1XWjJBBrl0v3Le2+Xc6s3ytN/qk/vM3y0AfKLSV+1n/AAb4/wDBYvw/c+D/AA3+zx8QF0vw7qmlp9i8H6rEiW1pqyszMLObb8q3e4ttf/lvu+b979/8afiB8Pdc+EvjjVfDHifSr7Q/EOh3D2d/p94nlz2sq/eVl/8AHty/KysrLuVlasdWaJlZWZWVtykNtZWoA/szVt1LX5J/8EMv+C5q/GJdJ+C/xo1dV8YKFtPDfiW7faviAfdS1uXb/l6/hR2/1/3T+9/1n61q26gBkn3f+BD+dfyC/tL/APJyXxG/7GvVv/S+ev6+pPu/8CH86/kF/aX/AOTkviN/2Nerf+l89AGf8FpNvxm8G/8AYwab/wClkVf2FRfdb/eNfx1fDXWLfw78SfDOoXj+Xa6fq9ldTvtZvLiS4R3bav3vlVq/o+H/AAcN/skxkr/ws64PzHn/AIRrVP8A5HoA+26K+Jf+Ih/9kn/oplx/4Teqf/I9H/EQ/wDsk/8ARTLj/wAJvVP/AJHoA+2qK+Jv+Ihz9kv/AKKZcf8AhNap/wDI9H/EQ5+yX/0Uy4/8JrVP/kegD7Zor4l/4iHf2S/+imXH/hNap/8AI9H/ABEP/sk/9FMuP/Cb1T/5HoA+2qK+Jf8AiIf/AGSf+imXH/hN6p/8j0f8RD/7JP8A0Uy4/wDCb1T/AOR6APtqivl79n7/AILIfs3/ALTvj2z8L+EfihpNx4h1CTyrOw1C2udMmvH/AIUi+0RIryN/Citub+7X1ArbqAFooooAKKKKACiiigAooooAKKKKACiiigAooooAKKKKACiiigAooooAKKKKACiiigAooooAKKKKACiiigAooooAKKKKACiiigAooooAKKKKACiiigAooooAKKKKACiiigAprRhqdRQB4n+0J/wTo+CH7VHmSePfhn4T168kyW1D7ELbUM/9fMOyX/x6viD47f8ABrN8K/F7SXHw/wDHPjDwTcNlltr9U1izU9gu7ZMq/wDbVq/UuigD+e/40f8ABtJ+0R8N2eTwzN4L+IFqu4qthqLafdMP+uV0qx7v92Vq+Ufi9+wv8aPgFvbxl8LfHmg28bc3MukSy2v/AH+iV4v/AB6v6vdgpCg/3aAP4847hGkZFdWdfvIG+Zf+A1Orba/q5+LP7Gfwn+Oqy/8ACZfDfwT4kebhpb/RbeWYfSTZvH/fVfNnxN/4N5v2YfiDlrPwhrHhOZvvPoWuXEC/hHKZY/8Ax2gD+d6OSplkr9m/iJ/waueD7+SR/CXxa8VaSP4ItW0u31BfxaIwNXh3jz/g18+Meh+Y/h7x58O9fSP7qXK3mmyt/wCOSr/49QB+bKycf3qesn+1X194z/4IIftSeDkeSP4fWOuRx/x6Tr9pLu/3VkdG/wDHa8n8Xf8ABNv9oLwKrtqnwX+JEccf3pItDluo/wDvqHetAHjXmf5FHmf7LVr+JPhf4o8GyMmseF/E2kuv3hfaTcW23/vtFrnJb6GFtryRo3oXVWoAttJ/wGkMnH96q63CSfcaNvo26nPu/utQArSYqJpKazMv+zUbNigB0kn/AHzUMklBkqGSSgAkeq8jU6STP+7UMj0ANkbNQSNmnyGoZHoAZI1QSNu/4FUkgZuzVC3y/M3y/WgAoqNr63j+9cQr9XVasabY3GtSKljb3F87fdS2iadm/wC+VagCOmsqsrK3zK3ysK9I8F/sefF34jMi+H/hX8SNa8z7ptfDN7Irf8C8rbXrngf/AIIsftUfEGRFs/gn4ss1b+PVJLXTVX6+dKrf+O0Afqd/wb9/8Fd0/aW8CWfwX+IeqK3xF8M22zRb+5f5/E1jEOjE/euoFGG/ikjVX+ZhJX6ifeFfzx/A/wD4Nxf2sLDxhpeuW914L+HeraPdRXtlfyeJGkurGZG3JKn2WJ8Mrf7VfvF+z5Y+PNM+DuhWvxMvvDupeOLW3EOq32hRSRWN9Ivy+aiSKGRmXBZegbO35eAAdyy7q+BP+CtP/BDXwp+3/DceMvCU1j4O+LMMSob9oz9h8QKq7VjvVX5t4X5VuFy6r8pV1Cqv35RQB/IX+0p+yp8Qv2QPiNJ4V+JHhXUvC+sKzeQLhN1tfIv8dvMv7uaP/aRm/wBra3y15/X9gXxn+BPg/wDaI8E3Xhvxz4Z0PxXoV19+y1OzS5izz8w3fdb/AGlww9a/PH9oz/g1q+DPxFvpr74f+KPFnw1uJSzCzJGs6dH/ALKpMVmVf+29AH4F0V+qPi3/AINQfi1ZXjrofxR+HWpW2eHvrO9sZP8AvlRKv/j1Z2i/8Gpfxvupl/tD4hfCuxh7mFr+5Zf+A+Sn/oVAH5f1reA/h/r3xV8ZWHh3wxouqeIfEGqP5Vnp2nWr3F1cN/soi7v+BfdX+Kv2q+BH/BqD4N0K8t7n4kfFDxF4lC/M9hoVgmlQMf7rSu0sjL/u7Gr9Ff2V/wBhT4U/sW+G3034a+CtF8MrcBRc3UMbTX190/11y5aWXkfxNj2oA/Oj/gkt/wAG6kPwt1bS/iR8frXT9V8QWrJc6X4PVhcWemyD5llvX+5cSq3zCJd0St95nb7v66qu2looAKKKKACiiigAooooA4v44fATwb+0l8Ob7wj468OaZ4o8O6mv7+yvovMQt2dT95JF/hdSrL2NfjT+3z/wbDeJvBV1eeIfgDqv/CUaTky/8IvrNwsWpWq/3be6bEc6+iy7JP8Abdq/cqgjdQB/Hf8AE74W+KPgl4wm8P8AjLw7rXhXXrc7XsNVs3s7n/eVXVdy/wC0u5awxNt/2a/r4+MXwB8EftC+FpNF8deE/D3i7S23YtdXsIrqNM913qdjf7S4NfDvxz/4NlP2dPihLPceGR4w+HN3JyiaPqX2izVv+uN0suF/2VZaAP56lmp3nGv1z+IP/Bpf4gs5W/4RT41aTeRsOI9Z8Oywn8XgmYf+O15/qH/Bql8drZm+zePPhPcr/DvuL+Jm/wDJdqAPzM840zzq/T7Sf+DUn42XEq/bviN8LbWPd8xi+33Df98+Sn/oVer/AAz/AODS6FZI5PGfxqupl3fvLfQvDyQbh7SzSv8A+gUAfjQJv7temfsx/sbfFL9svxMul/DTwTrnip/MVJ7u3i8vT7P/AGprl9sSf8Cbd/s1/QB+z7/wbzfsyfAe5hu7rwfd+PtQt2V0uPFl82oJuH/TuoSD/vqNq+zfC/hPS/BWiW+l6PptjpOm2a7Le0s7ZLeGBf7qIgCqPpQB+Wn/AATz/wCDZnwr8Jr2w8UfHXULHx5rcJWeLw5Zbl0O1f737522yXbL/dZUi9Vev1S0nSLTQtLt7Kxtrezs7WNYYbeFBHFCijCoqj5VVR2FXqKAPhH/AILH/wDBHHQ/+CiHgmTxN4ZjsdD+L2h22yw1Bvkg1mJfmFndlf4f+ecv3omP8SMy1/Oj8Qvh7rnwn8car4Z8T6VfaH4h0O4ezv8AT7yLy57WVfvKy/8Aj25flZWVl3KytX9jlfEv/BVz/gjH4O/4KRabba3Z3ieDfiZpcXk22ux2nmw38K9Le7jUqzov8Dq2+PccZXK0AfzTqW8xdrMjbl2lG2sp/vBv4Wr+qb/glB8YPEHx7/4Jz/CLxZ4quJrrxBq3h6L7Zczf6y8aJniEz+rSKiuW/i3V+YvwI/4NSfGkvxJtG+J3xG8Kw+EYJVe6i8NJcS6hfIrfNGrzIiQ7um/52XstftX8PvAekfC3wPpHhvQLG30vQ9As4tPsLOAYjtbeJFREX2VVFAGw/X8RX8hH7UVnJYftOfEq3uI2hmh8W6wjo67WU/b5/lav6+WG4V+Wn/BU7/g3XX9rz416j8Sfhb4m0fwj4k8RSfaNc0vV4JW0+9uMfNdRyxKzxSPhd67GVm+b5WLbgD8F6K/TD/iFZ/aC/wChw+Ef/gxv/wD5Eo/4hWf2gv8AocPhH/4Mb/8A+RKAPzPor9MP+IVn9oL/AKHD4R/+DG//APkSj/iFZ/aC/wChw+Ef/gxv/wD5EoA/M+iv0w/4hWf2gv8AocPhH/4Mb/8A+RKP+IVn9oL/AKHD4R/+DG//APkSgD8z6K/TD/iFZ/aC/wChw+Ef/gxv/wD5Eo/4hWf2gv8AocPhH/4Mb/8A+RKAPzPor9MP+IVn9oL/AKHD4R/+DG//APkSj/iFZ/aC/wChw+Ef/gxv/wD5EoA/NGNmWVGWRldWVlZG2spVvlZW/hZf4Wr+qr/glR8Y/EPx+/4J4/CHxd4qnlu/EOseHYDe3Up/eXjoWi85v9p1QOT3LV+Xv7Pn/Bqd42ufH9jL8VPiF4VtfCsUqvd23hr7Rc6heIp5iWWaJEh3dN+12Xsua/bHwD4G0n4YeCtJ8O6FY2+l6LoNnFYWFnCu2O1t4kVERfZVAoA2aKKKACiiigAooooAKKKKACiiigAooooAKKKKACiiigAooooAKKKKACiiigAooooAKKKKACiiigAooooAKKKKACiiigAooooAKKKKACiiigAooooAKKKKACiiigAooooAKKKKACiiigAooooAKKKKACiiigBu0N2oCKg4GPpTqKAI2iDKVb5lbs3Ncz4k+C3g/wAXhv7W8KeG9U3fe+16XBPn/vpDXVUUAeNeI/8Agnr8CvFin+0Pg58L7kn7xPhmzVj+KoK4nWP+CN/7MOulmm+Cvgdd3/Pvavb/APot1r6booA+QdR/4IQfsp6kp/4tPZ27N3t9Z1GH/wBBuK57U/8Ag3m/ZZvt3l+B9atN3/PHxNqIx/31Ka+36KAPgi9/4Nvv2Y7rd5eieMLfc27934ouvy+bdVK4/wCDaj9meYri08fRr6J4ml/qtfoJRQB+e7f8G0H7NLf8u/xC/wDCmf8A+IqWL/g2n/ZkjC503x1Jt67/ABPPz+Qr9A6KAPgyy/4NvP2WbU/vPC3ii5/66eKb3/2V1rb0v/g3p/ZNsMb/AIaXN1t/5+PEmpyf+3FfbFFAHyPp3/BCj9k3SgvlfBXw5KV/5+by9uf/AEZM1dd4b/4JJfszeFWVrP4F/DHcvQzaFBP/AOhq1fRVFAHmfh79jT4ReEgv9lfC34c6Wy9DaeGrKFv/AB2Ku60bwrpvhyHy9NsLOwj6bLeBIl/8dFaVFADdnu350uweg/KlooAKKKKACiiigAooooAKKKKACiiigAooooAKKKKACiiigAooooAKKKKACiiigAooooAKKKKACiiigAooooAKKKKACiiigAooooAKKKKACiiigAooooAKKKKACiiigAooooAKKKKACiiigAooooAKKKKACiiigAooooAKKKKACiiigAooooAKKKKACiiigAooooAKKKKACiiigAooooAKKKKACiiigAooooAKKKKACiiigAooooAKKKKACiiigAooooAKKKKACiiigAooooAKKKKACiiigAooooAKKKKACiiigAooooAKKKKACiiigAooooAKKKKACiiigAooooAKKKKACiiigAooooAKKKKACiiigAooooAKKKKACiiigAooooAKKKKACiiigAooooAKKKKACiiigAooooAKKKKACiiigAooooAKKKKACiiigAooooAKKKKACiiigAooooAKKKKACiiigAooooAKKKKACiiigAooooAKKKKACiiigAooooAKKKKACiiigAooooAKKKKACiiigAooooAKKKKACiiigAooooAKKKKACiiigAooooAKKKKACiiigAooooAKKKKACiiigAooooAKKKKACiiigAooooAKKKKACiiigAooooAKKKKACiiigAooooAKKKKACiiigAooooAKKKKACiiigAooooAKKKKACiiigAooooAKKKKACiiigAooooAKKKKACiiigAooooAKKKKACiiigAooooAKKKKACiiigAooooAKKKKACiiigAooooAKKKKACiiigAooooAKKKKACiiigAooooAKKKKACiiigAooooAKKKKACiiigAooooAKKKKACiiigAooooAKKKKACiiigAooooAKKKKACiiigAooooAKKKKACiiigAooooAKKKKACiiigAooooAKKKKACiiigAooooAKKKKACiiigAooooAKKKKACiiigAooooAKKKKACiiigAooooAKKKKACiiigAooooAKKKKACiiigAooooAKKKKACiiigAooooAKKKKACiiigAooooAKKKKACiiigAooooAKKKKACiiigAooooAKKKKACiiigAooooAKKKKACiiigAooooAKKKKACiiigAooooAKKKKACiiigAooooAKKKKACiiigAooooAKKKKACiiigAooooAKKKKACiiigAooooAKKKKACiiigAooooAKKKKACiiigAooooAKKKKACiiigAooooAKKKKACiiigAooooAKKKKACiiigAooooAKKKKACiiigAooooAKKKKACiiigAooooAKKKKACiiigAooooAKKKKACiiigAooooAKKKKACiiigAooooAKKKKACiiigAooooAKKKKACiiigAooooAKKKKACiiigAooooAKKKKACiiigAooooAKKKKACiiigAooooAKKKKACiiigAooooAKKKKACiiigAooooAKKKKACiiigAooooAKKKKACiiigAooooAKKKKACiiigAooooAKKKKACiiigAooooAKKKKACiiigAooooAKKKKACiiigAooooAKKKKACiiigAooooAKKKKACiiigAooooAKKKKACiiigAooooAKKKKACiiigAooooAKKKKACiiigAooooAKKKKACiiigAooooAKKKKACiiigAooooAKKKKACiiigAooooAKKKKACiiigAooooAKKKKACiiigAooooAKKKKACiiigAooooAKKKKACiiigAooooAKKKKACiiigAooooAKKKKACiiigAooooAKKKKACiiigAooooAKKKKACiiigAooooAKKKKACiiigAooooAKKKKACiiigAooooAKKKKACiiigAooooAKKKKACiiigAooooAKKKKACiiigAooooAKKKKACiiigAooooAKKKKACiiigAooooAKKKKACiiigAooooAKKKKACiiigAooooAKKKKACiiigAooooAKKKKACiiigAooooAKKKKACiiigAooooAKKKKACiiigAooooAKKKKACiiigAooooAKKKKACiiigAooooAKKKKACiiigAooooAKKKKACiiigAooooAKKKKACiiigAooooAKKKKACiiigAooooAKKKKACiiigAooooAKKKKACiiigAooooAKKKKACiiigAooooAKKKKACiiigAooooAKKKKACiiigAooooAKKKKACiiigAooooAKKKKACiiigAooooAKKKKACiiigAooooAKKKKACiiigAooooAKKKKACiiigAooooAKKKKACiiigAooooAKKKKACiiigAooooAKKKKACiiigAooooAKKKKACiiigAooooAKKKKACiiigAooooAKKKKACiiigAooooAKKKKACiiigAooooAKKKKACiiigAooooAKKKKACiiigAooooAKKKKACiiigAooooAKKKKACiiigAooooAKKKKACiiigAooooAKKKKACiiigAooooAKKKKACiiigAooooAKKKKACiiigAooooAKKKKACiiigAooooAKKKKACiiigAooooAKKKKACiiigAooooAKKKKACiiigAooooAKKKKACiiigAooooAKKKKACiiigAooooAKKKKACiiigAooooAKKKKACiiigAooooAKKKKACiiigAooooAKKKKACiiigAooooAKKKKACiiigAooooAKKKKACiiigAooooAKKKKACiiigAooooAKKKKACiiigAooooAKKKKACiiigAooooAKKKKACiiigAooooAKKKKACiiigAooooAKKKKACiiigAooooAKKKKACiiigAooooAKKKKACiiigAooooAKKKKACiiigAooooAKKKKACiiigAooooAKKKKACiiigAooooAKKKKACiiigAooooAKKKKACiiigAooooAKKKKACiiigAooooAKKKKACiiigAooooAKKKKACiiigAooooAKKKKACiiigAooooAKKKKACiiigAooooAKKKKACiiigAooooAKKKKACiiigAooooAKKKKACiiigAooooAKKKKACiiigAooooAKKKKACiiigAooooAKKKKACiiigAooooAKKKKACiiigAooooAKKKKACiiigAooooAKKKKACiiigAooooAKKKKACiiigAooooAKKKKACiiigAooooAKKKKACiiigAooooAKKKKACiiigAooooAKKKKACiiigAooooAKKKKACiiigAooooAKKKKACiiigAooooAKKKKACiiigAooooAKKKKACiiigAooooAKKKKACiiigAooooAKKKKACiiigAooooAKKKKACiiigAooooAKKKKACiiigAooooAKKKKACiiigAooooAKKKKACiiigAooooAKKKKACiiigAooooAKKKKACiiigAooooAKKKKACiiigAooooAKKKKACiiigAooooAKKKKACiiigAooooAKKKKACiiigAooooAKKKKACiiigAooooAKKKKACiiigAooooAKKKKACiiigAooooAKKKKACiiigAooooAKKKKACiiigAooooAKKKKACiiigAooooAKKKKACiiigAooooAKKKKACiiigAooooAKKKKACiiigAooooAKKKKACiiigAooooAKKKKACiiigAooooAKKKKACiiigAooooAKKKKACiiigAooooAKKKKACiiigAooooAKKKKACiiigAooooAKKKKACiiigAooooAKKKKACiiigAooooAKKKKACiiigAooooAKKKKACiiigAooooAKKKKACiiigAooooAKKKKACiiigAooooAKKKKACiiigAooooAKKKKACiiigAooooAKKKKACiiigAooooAKKKKACiiigAooooAKKKKACiiigAooooAKKKKACiiigAooooAKKKKACiiigAooooAKKKKACiiigAooooAKKKKACiiigAooooAKKKKACiiigAooooAKKKKACiiigAooooAKKKKACiiigAooooAKKKKACiiigAooooAKKKKACiiigAooooAKKKKACiiigAooooAKKKKACiiigAooooAKKKKACiiigAooooAKKKKACiiigAooooAKKKKACiiigAooooAKKKKACiiigAooooAKKKKACiiigAooooAKKKKACiiigAooooAKKKKACiiigAooooAKKKKACiiigAooooAKKKKACiiigAooooAKKKKACiiigAooooAKKKKACiiigAooooAKKKKACiiigAooooAKKKKACiiigAooooAKKKKACiiigAooooAKKKKACiiigAooooAKKKKACiiigAooooAKKKKACiiigAooooAKKKKACiiigAooooAKKKKACiiigAooooAKKKKACiiigAooooAKKKKACiiigAooooAKKKKACiiigAooooAKKKKACiiigAooooAKKKKACiiigAooooAKKKKACiiigAooooAKKKKACiiigAooooAKKKKACiiigAooooAKKKKACiiigAooooAKKKKACiiigAooooAKKKKACiiigAooooAKKKKACiiigAooooAKKKKACiiigAooooAKKKKACiiigAooooAKKKKACiiigAooooAKKKKACiiigAooooAKKKKACiiigAooooAKKKKACiiigAooooAKKKKACiiigAooooAKKKKACiiigAooooAKKKKACiiigAooooAKKKKACiiigAooooAKKKKACiiigAooooAKKKKACiiigAooooAKKKKACiiigAooooAKKKKACiiigAooooAKKKKACiiigAooooAKKKKACiiigAooooAKKKKACiiigAooooAKKKKACiiigAooooAKKKKACiiigAooooAKKKKACiiigAooooAKKKKACiiigAooooAKKKKACiiigAooooAKKKKACiiigAooooAKKKKACiiigAooooAKKKKACiiigAooooAKKKKACiiigAooooAKKKKACiiigAooooAKKKKACiiigAooooAKKKKACiiigAooooAKKKKACiiigAooooAKKKKACiiigAooooAKKKKACiiigAooooAKKKKACiiigAooooAKKKKACiiigAooooAKKKKACiiigAooooAKKKKACiiigAooooAKKKKACiiigAooooAKKKKACiiigAooooAKKKKACiiigAooooAKKKKACiiigAooooAKKKKACiiigD//2Q==;" vertex="1" parent="1">
          <mxGeometry x="43" y="484.5" width="93.01" height="88" as="geometry" />
        </mxCell>
        <mxCell id="np7akrZoU4M9_Trvwf6j-84" value="" style="rounded=0;whiteSpace=wrap;html=1;fillColor=#fad7ac;strokeColor=#b46504;" vertex="1" parent="1">
          <mxGeometry x="389" y="70" width="341" height="299" as="geometry" />
        </mxCell>
        <mxCell id="np7akrZoU4M9_Trvwf6j-85" value="Database" style="rounded=1;whiteSpace=wrap;html=1;fillColor=#dae8fc;gradientColor=#7ea6e0;strokeColor=#6c8ebf;" vertex="1" parent="1">
          <mxGeometry x="400" y="83" width="173" height="41" as="geometry" />
        </mxCell>
        <mxCell id="np7akrZoU4M9_Trvwf6j-86" value="" style="rounded=0;whiteSpace=wrap;html=1;fillColor=#e6d0de;gradientColor=#d5739d;strokeColor=#996185;" vertex="1" parent="1">
          <mxGeometry x="400" y="122" width="170" height="66" as="geometry" />
        </mxCell>
        <mxCell id="np7akrZoU4M9_Trvwf6j-87" value="" style="endArrow=none;html=1;rounded=0;" edge="1" parent="1">
          <mxGeometry width="50" height="50" relative="1" as="geometry">
            <mxPoint x="411.7058823529412" y="316" as="sourcePoint" />
            <mxPoint x="415" y="314" as="targetPoint" />
          </mxGeometry>
        </mxCell>
        <mxCell id="np7akrZoU4M9_Trvwf6j-88" value="Products" style="rounded=1;whiteSpace=wrap;html=1;fillColor=#dae8fc;gradientColor=#7ea6e0;strokeColor=#6c8ebf;" vertex="1" parent="1">
          <mxGeometry x="407" y="160" width="66" height="25" as="geometry" />
        </mxCell>
        <mxCell id="np7akrZoU4M9_Trvwf6j-89" value="Users" style="rounded=1;whiteSpace=wrap;html=1;fillColor=#dae8fc;gradientColor=#7ea6e0;strokeColor=#6c8ebf;" vertex="1" parent="1">
          <mxGeometry x="407" y="127" width="66" height="25" as="geometry" />
        </mxCell>
        <mxCell id="np7akrZoU4M9_Trvwf6j-90" value="Tokens" style="rounded=1;whiteSpace=wrap;html=1;fillColor=#dae8fc;gradientColor=#7ea6e0;strokeColor=#6c8ebf;" vertex="1" parent="1">
          <mxGeometry x="497" y="129" width="66" height="25" as="geometry" />
        </mxCell>
        <mxCell id="np7akrZoU4M9_Trvwf6j-91" style="edgeStyle=orthogonalEdgeStyle;rounded=0;orthogonalLoop=1;jettySize=auto;html=1;exitX=0.5;exitY=1;exitDx=0;exitDy=0;" edge="1" parent="1" source="np7akrZoU4M9_Trvwf6j-89" target="np7akrZoU4M9_Trvwf6j-89">
          <mxGeometry relative="1" as="geometry" />
        </mxCell>
        <mxCell id="np7akrZoU4M9_Trvwf6j-92" value="Checks" style="rounded=1;whiteSpace=wrap;html=1;fillColor=#dae8fc;gradientColor=#7ea6e0;strokeColor=#6c8ebf;" vertex="1" parent="1">
          <mxGeometry x="497" y="160" width="66" height="25" as="geometry" />
        </mxCell>
        <mxCell id="np7akrZoU4M9_Trvwf6j-93" value="Login" style="rounded=1;whiteSpace=wrap;html=1;fillColor=#dae8fc;gradientColor=#7ea6e0;strokeColor=#6c8ebf;" vertex="1" parent="1">
          <mxGeometry x="610" y="83" width="99" height="41" as="geometry" />
        </mxCell>
        <mxCell id="np7akrZoU4M9_Trvwf6j-94" value="" style="rounded=0;whiteSpace=wrap;html=1;fillColor=#e6d0de;gradientColor=#d5739d;strokeColor=#996185;" vertex="1" parent="1">
          <mxGeometry x="610" y="124" width="98" height="94" as="geometry" />
        </mxCell>
        <mxCell id="np7akrZoU4M9_Trvwf6j-95" style="edgeStyle=orthogonalEdgeStyle;rounded=0;orthogonalLoop=1;jettySize=auto;html=1;exitX=0.5;exitY=1;exitDx=0;exitDy=0;" edge="1" parent="1">
          <mxGeometry relative="1" as="geometry">
            <mxPoint x="650" y="154" as="sourcePoint" />
            <mxPoint x="650" y="154" as="targetPoint" />
          </mxGeometry>
        </mxCell>
        <mxCell id="np7akrZoU4M9_Trvwf6j-96" value="LoginRemote" style="text;html=1;strokeColor=none;fillColor=none;align=center;verticalAlign=middle;whiteSpace=wrap;rounded=0;" vertex="1" parent="1">
          <mxGeometry x="617" y="126" width="74" height="20" as="geometry" />
        </mxCell>
        <mxCell id="np7akrZoU4M9_Trvwf6j-97" value="LoginRouting" style="text;html=1;strokeColor=none;fillColor=none;align=center;verticalAlign=middle;whiteSpace=wrap;rounded=0;" vertex="1" parent="1">
          <mxGeometry x="617" y="146" width="74" height="20" as="geometry" />
        </mxCell>
        <mxCell id="np7akrZoU4M9_Trvwf6j-98" value="LoginController" style="text;html=1;strokeColor=none;fillColor=none;align=center;verticalAlign=middle;whiteSpace=wrap;rounded=0;" vertex="1" parent="1">
          <mxGeometry x="620" y="166" width="74" height="20" as="geometry" />
        </mxCell>
        <mxCell id="np7akrZoU4M9_Trvwf6j-99" value="CheckProduct" style="rounded=1;whiteSpace=wrap;html=1;fillColor=#dae8fc;gradientColor=#7ea6e0;strokeColor=#6c8ebf;" vertex="1" parent="1">
          <mxGeometry x="609" y="230" width="96" height="41" as="geometry" />
        </mxCell>
        <mxCell id="np7akrZoU4M9_Trvwf6j-100" value="" style="rounded=0;whiteSpace=wrap;html=1;fillColor=#e6d0de;gradientColor=#d5739d;strokeColor=#996185;" vertex="1" parent="1">
          <mxGeometry x="610" y="268" width="96" height="94" as="geometry" />
        </mxCell>
        <mxCell id="np7akrZoU4M9_Trvwf6j-101" style="edgeStyle=orthogonalEdgeStyle;rounded=0;orthogonalLoop=1;jettySize=auto;html=1;exitX=0.5;exitY=1;exitDx=0;exitDy=0;" edge="1" parent="1">
          <mxGeometry relative="1" as="geometry">
            <mxPoint x="650" y="298" as="sourcePoint" />
            <mxPoint x="650" y="298" as="targetPoint" />
          </mxGeometry>
        </mxCell>
        <mxCell id="np7akrZoU4M9_Trvwf6j-102" value="ProductRemote" style="text;html=1;strokeColor=none;fillColor=none;align=center;verticalAlign=middle;whiteSpace=wrap;rounded=0;" vertex="1" parent="1">
          <mxGeometry x="617" y="270" width="74" height="20" as="geometry" />
        </mxCell>
        <mxCell id="np7akrZoU4M9_Trvwf6j-103" value="ProductRouting" style="text;html=1;strokeColor=none;fillColor=none;align=center;verticalAlign=middle;whiteSpace=wrap;rounded=0;" vertex="1" parent="1">
          <mxGeometry x="617" y="290" width="74" height="20" as="geometry" />
        </mxCell>
        <mxCell id="np7akrZoU4M9_Trvwf6j-104" value="ProductController" style="text;html=1;strokeColor=none;fillColor=none;align=center;verticalAlign=middle;whiteSpace=wrap;rounded=0;" vertex="1" parent="1">
          <mxGeometry x="620" y="310" width="74" height="20" as="geometry" />
        </mxCell>
        <mxCell id="np7akrZoU4M9_Trvwf6j-105" value="AnalysisCheck" style="text;html=1;strokeColor=none;fillColor=none;align=center;verticalAlign=middle;whiteSpace=wrap;rounded=0;" vertex="1" parent="1">
          <mxGeometry x="614" y="330" width="74" height="20" as="geometry" />
        </mxCell>
        <mxCell id="np7akrZoU4M9_Trvwf6j-106" value="Plugins" style="rounded=1;whiteSpace=wrap;html=1;fillColor=#dae8fc;gradientColor=#7ea6e0;strokeColor=#6c8ebf;" vertex="1" parent="1">
          <mxGeometry x="400" y="229.5" width="94" height="40" as="geometry" />
        </mxCell>
        <mxCell id="np7akrZoU4M9_Trvwf6j-107" value="" style="rounded=0;whiteSpace=wrap;html=1;fillColor=#e6d0de;gradientColor=#d5739d;strokeColor=#996185;" vertex="1" parent="1">
          <mxGeometry x="401" y="270" width="91" height="92" as="geometry" />
        </mxCell>
        <mxCell id="np7akrZoU4M9_Trvwf6j-108" style="edgeStyle=orthogonalEdgeStyle;rounded=0;orthogonalLoop=1;jettySize=auto;html=1;exitX=0.5;exitY=1;exitDx=0;exitDy=0;" edge="1" parent="1">
          <mxGeometry relative="1" as="geometry">
            <mxPoint x="440" y="285" as="sourcePoint" />
            <mxPoint x="440" y="285" as="targetPoint" />
          </mxGeometry>
        </mxCell>
        <mxCell id="np7akrZoU4M9_Trvwf6j-109" value="Routing" style="text;html=1;strokeColor=none;fillColor=none;align=center;verticalAlign=middle;whiteSpace=wrap;rounded=0;" vertex="1" parent="1">
          <mxGeometry x="409.5" y="288" width="74" height="18" as="geometry" />
        </mxCell>
        <mxCell id="np7akrZoU4M9_Trvwf6j-110" value="Serialization" style="text;html=1;strokeColor=none;fillColor=none;align=center;verticalAlign=middle;whiteSpace=wrap;rounded=0;" vertex="1" parent="1">
          <mxGeometry x="410" y="314.5" width="74" height="11" as="geometry" />
        </mxCell>
        <mxCell id="np7akrZoU4M9_Trvwf6j-111" value="Main" style="rounded=1;whiteSpace=wrap;html=1;fillColor=#dae8fc;gradientColor=#7ea6e0;strokeColor=#6c8ebf;" vertex="1" parent="1">
          <mxGeometry x="507.5" y="229" width="88.5" height="27" as="geometry" />
        </mxCell>
        <mxCell id="np7akrZoU4M9_Trvwf6j-112" value="Application" style="rounded=0;whiteSpace=wrap;html=1;fillColor=#e6d0de;gradientColor=#d5739d;strokeColor=#996185;" vertex="1" parent="1">
          <mxGeometry x="507.5" y="256" width="87.5" height="30" as="geometry" />
        </mxCell>
        <mxCell id="np7akrZoU4M9_Trvwf6j-113" style="edgeStyle=orthogonalEdgeStyle;rounded=0;orthogonalLoop=1;jettySize=auto;html=1;exitX=0.5;exitY=1;exitDx=0;exitDy=0;" edge="1" parent="1">
          <mxGeometry relative="1" as="geometry">
            <mxPoint x="450" y="295" as="sourcePoint" />
            <mxPoint x="450" y="295" as="targetPoint" />
          </mxGeometry>
        </mxCell>
        <mxCell id="np7akrZoU4M9_Trvwf6j-114" value="CheckOnline" style="rounded=1;whiteSpace=wrap;html=1;fillColor=#dae8fc;gradientColor=#7ea6e0;strokeColor=#6c8ebf;" vertex="1" parent="1">
          <mxGeometry x="507" y="298.5" width="88.5" height="27" as="geometry" />
        </mxCell>
        <mxCell id="np7akrZoU4M9_Trvwf6j-115" value="Requests" style="rounded=0;whiteSpace=wrap;html=1;fillColor=#e6d0de;gradientColor=#d5739d;strokeColor=#996185;" vertex="1" parent="1">
          <mxGeometry x="507" y="325" width="87.5" height="30" as="geometry" />
        </mxCell>
      </root>
    </mxGraphModel>
  </diagram>
</mxfile>
